<svg version="1.1" xmlns="http://www.w3.org/2000/svg" style="display: block;" viewBox="0 0 2048 2019" width="982" height="968" preserveAspectRatio="none">
<path transform="translate(0,0)" fill="#0A0A0A" d="M 0 0 L 994.152 0 L 2048 0 L 2048 0.936918 L 2048 2019 L 0 2019 L 0 0 z"/>
<path transform="translate(0,0)" fill="#0A0A0A" d="M 0 0 L 994.152 0 C 992.372 2.22092 991.74 3.18612 988.094 3.44642 C 969.668 4.76175 951.491 5.56849 933.098 7.56121 C 891.76 12.2596 850.719 19.2809 810.17 28.5916 C 603.39 75.7574 408.744 202.109 274.57 365.366 C 102.189 571.179 19.8887 837.707 46.219 1104.88 C 52.5283 1166.14 65.1088 1226.58 83.7627 1285.27 C 142.244 1474.71 256.216 1642.24 410.94 1766.21 C 604.39 1924.24 868.899 2009.67 1118.32 1984.44 C 1381.49 1960.23 1623.91 1831.34 1791.16 1626.71 C 1958.4 1423.91 2037.75 1162.72 2011.58 901.162 C 1983.3 634.866 1850.52 390.667 1642.39 222.158 C 1484.99 94.8907 1301.4 18.2698 1098.66 4.48364 C 1095.34 4.2577 1081.07 4.1418 1080.36 1.2571 C 1087.06 -0.362781 1128.88 0.996522 1137.82 0.99628 L 1312.35 0.953655 L 2048 0.936918 L 2048 2019 L 0 2019 L 0 0 z"/>
<path transform="translate(0,0)" fill="#0A0A0A" d="M 1000.49 23.4202 C 1248.25 15.5986 1489.16 105.461 1671.28 273.631 C 1868.75 450.987 1986.46 700.418 1997.81 965.604 C 2006.57 1221.91 1913.75 1471.31 1739.56 1659.53 C 1598.9 1811.83 1413.08 1914.99 1209.43 1953.83 C 1157.16 1963.69 1110.46 1968.04 1057.75 1970.16 C 1021.03 1972.14 979.674 1969.74 942.967 1966.27 C 738.541 1945.98 545.668 1861.94 391.627 1726.02 C 198.356 1558.06 79.5196 1320.35 61.1401 1064.96 C 46.4343 804.626 135.885 549.136 309.765 354.831 C 452.453 190.783 646.287 79.6376 859.943 39.3561 C 908.842 30.2011 951.281 26.5413 1000.49 23.4202 z"/>
<path transform="translate(0,0)" fill="#C9A84C" d="M 1008.61 44.432 C 1053.23 42.2916 1106.35 45.9845 1150.56 51.7093 C 1348.92 77.3937 1517.51 161.397 1664.73 295.04 C 1853.03 467.748 1965.47 707.865 1977.54 963.092 C 1987.26 1212.18 1898.98 1455.15 1731.62 1639.89 C 1586.11 1800.53 1389.89 1906.36 1175.73 1939.72 C 1132.63 1946.51 1096.43 1948.89 1053.32 1950.96 C 809.815 1955.02 573.935 1866.01 393.816 1702.09 C 207.946 1534.74 95.7962 1300.67 81.8303 1050.94 C 70.493 793.71 162.776 542.672 338.021 354.028 C 475.159 202.664 657.648 99.8083 858.151 60.8694 C 907.843 51.7809 958.125 46.2875 1008.61 44.432 z"/>
<path transform="translate(0,0)" fill="#0A0A0A" d="M 1002.19 55.5 C 1057.57 51.8133 1126.8 57.8345 1181.3 66.9263 C 1328.61 91.301 1467.67 151.517 1586.23 242.274 C 1610.1 260.477 1633.86 281.178 1656.18 301.182 C 1840.19 468.836 1951.43 701.732 1966.2 950.224 C 1980.27 1201.35 1893.04 1447.64 1724.05 1633.94 C 1588.95 1782.99 1409.41 1884.53 1212.05 1923.49 C 1157.97 1934.04 1112.45 1937.99 1058.22 1940.8 C 859.742 1945.79 664.789 1887.72 501.394 1774.93 C 435.299 1729.39 378.277 1678.85 325.144 1618.88 C 185.733 1461.66 103.66 1261.87 92.2892 1052.04 C 80.5383 798.695 170.537 551.16 342.258 364.519 C 481.985 208.567 670.207 104.275 876.518 68.4897 C 919.313 61.1308 958.864 57.6942 1002.19 55.5 z"/>
<path transform="translate(0,0)" fill="#C9A84C" d="M 1349.59 529.069 C 1351.35 529 1353.12 528.951 1354.89 528.925 C 1370.25 528.72 1384.04 535.14 1391.68 548.771 C 1396.73 557.793 1396.32 564.988 1396.1 574.825 C 1388.75 583.785 1381.29 592.654 1373.72 601.429 C 1380.39 607.458 1398.19 620.437 1396.81 629.922 C 1394.41 633.1 1395.89 631.924 1392.14 633.491 C 1384.37 633.119 1371.72 618.357 1365.4 612.083 C 1359.62 618.464 1354.62 624.536 1349.2 631.192 L 1358.82 640.669 C 1374.13 627.279 1384.45 636.689 1379.05 655.157 C 1371.27 681.796 1332.01 685.004 1348.86 651.426 L 1340.02 642.421 C 1226.44 780.285 1086.26 953.416 1046.72 1129.33 C 1115.81 1064.9 1157.24 1138.9 1204.31 1117.57 C 1212.18 1114.01 1218.7 1107.42 1221.69 1099.28 C 1224.47 1091.7 1225.11 1083.84 1221.6 1076.37 C 1219.47 1071.83 1216.02 1066.82 1210.97 1065.31 C 1202.25 1062.71 1195.4 1070.37 1188.34 1073.9 C 1185.85 1075.14 1184.6 1074.97 1182.01 1074.22 C 1179.4 1071.74 1177.87 1069.38 1177.86 1065.67 C 1177.76 1031.16 1207 1008.48 1238.32 1005.93 C 1258.58 1004.12 1278.71 1010.55 1294.18 1023.76 C 1335.16 1058.59 1335.44 1121.31 1305.51 1163.37 C 1301.27 1169.33 1296.34 1174.98 1291.6 1180.56 C 1311.72 1168.21 1328.02 1150.53 1338.69 1129.47 C 1354.11 1098.39 1356.43 1062.42 1345.1 1029.62 C 1328.51 981.029 1294.06 952.005 1249.42 930.207 C 1244.07 933.959 1237.97 937.925 1232.95 942.02 C 1216.61 955.365 1177.5 968.906 1163.25 945.654 C 1160.07 940.57 1159.16 934.393 1160.73 928.609 C 1162.67 921.472 1168.84 915.191 1175.33 912.081 C 1197.42 901.498 1223.7 907.657 1245.43 914.729 C 1279.17 884.07 1305.05 837.53 1284.85 792.16 C 1282.29 786.421 1272.3 771.713 1272.22 766.608 C 1274.44 764.143 1274.46 763.669 1277.7 762.832 C 1280.3 763.235 1282.59 763.877 1284.27 766.07 C 1324.11 817.91 1301.73 879.511 1258.81 919.856 C 1322 950.649 1369.01 1007.19 1364.92 1080.54 C 1363.06 1117.53 1346.53 1152.25 1319 1177.03 C 1288.21 1204.32 1249.56 1212.45 1209.42 1209.27 C 1203.59 1208.81 1191.57 1205.25 1193.99 1197.48 C 1195.69 1196.19 1197.96 1195 1200.1 1195.07 C 1216.1 1195.66 1229.48 1196.88 1245.28 1192.36 C 1315.31 1172.29 1342.01 1064.89 1273.49 1026.13 C 1259.28 1018.1 1239.57 1017.54 1224.13 1022.54 C 1206.68 1028.18 1198.52 1039.75 1190.81 1055.5 C 1197.56 1053.11 1203 1051 1210.38 1052.1 C 1218.34 1053.33 1225.46 1057.74 1230.1 1064.33 C 1236.51 1073.32 1238.94 1086.14 1236.38 1096.77 C 1229.44 1125.59 1203.4 1139.08 1175.27 1134.2 C 1156.92 1131.02 1141.48 1121.62 1123.87 1117.91 C 1090.68 1110.63 1056.9 1127.4 1042.64 1158.24 C 1041.05 1161.65 1039.55 1167.06 1038.81 1170.76 C 1028.32 1223.81 991.002 1273.35 936.895 1286.95 C 914.935 1292.47 896.367 1291.11 873.943 1286.31 C 833.002 1274.35 798.435 1246.72 777.749 1209.42 C 757.439 1173.04 752.778 1129.98 764.834 1090.1 C 775.822 1052.37 800.614 1020.17 834.274 999.889 C 847.911 991.59 874.467 978.979 890.2 970.471 C 871.969 948.154 851 932.879 827.204 917.447 C 818.983 923.003 808.686 928.017 799.727 932.208 C 794.21 948.537 790.142 965.318 784.164 982.484 C 768.407 1027.21 748.065 1070.19 723.463 1110.73 C 718.4 1119.08 711.428 1130.05 705.434 1138.03 C 703.98 1139.97 701.776 1139.54 699.698 1139.47 C 690.353 1134.39 697.164 1127.12 701.087 1120.67 C 704.025 1115.84 707.184 1111.1 710.169 1106.29 C 742.264 1053.99 766.833 997.438 783.154 938.289 C 762.835 944.526 728.906 949.533 715.157 928.521 C 711.454 922.933 710.302 916.035 711.987 909.547 C 720.758 875.7 771.14 881.395 796.068 888.534 C 812.239 833.907 815.717 762.442 803.655 706.757 C 802.213 700.099 802.035 692.383 811.368 693.436 C 819.517 698.756 820.271 716.599 821.732 725.787 C 830.844 783.076 822.717 837.934 809.234 893.703 C 816.31 896.517 819.87 898.336 826.568 902.032 C 853.571 885.833 878.435 866.313 900.581 843.927 C 913.197 831.007 924.847 817.178 935.439 802.553 C 939.251 797.308 943.637 788.106 951.002 791.772 C 952.902 795.673 951.314 802.131 949.061 805.552 C 921.137 847.955 882.462 881.484 840.902 909.599 C 867.177 927.857 880.727 939.138 902.192 963.034 C 918.761 951.602 935.866 941.08 952.409 929.28 C 986.588 904.689 1019.18 877.968 1050 849.276 C 1081.8 819.919 1088.24 814.48 1103.71 772.176 C 1077.47 782.255 1056.08 776.716 1036.6 756.881 C 1017.59 775.049 997.969 780.661 972.638 773.145 C 983.214 790.44 1002.71 808.604 1023.89 808.837 C 1031.61 808.922 1040.21 807.729 1047.72 808.895 C 1050.05 811.361 1049.07 809.953 1050.03 813.832 C 1048.44 822.254 1037.54 823.175 1030.55 823.293 C 995.967 823.154 973.386 799.864 957.393 771.58 C 942.863 745.883 955.769 744.299 978.378 735.811 C 987.367 732.436 997.506 732.112 1007.22 732.82 C 1003.46 729.167 1000.04 725.189 996.979 720.934 C 985.364 704.624 981.231 687.542 984.041 667.705 C 988.908 633.341 1021.9 614.831 1028.99 581.945 C 1030.21 576.277 1029.6 571.018 1034.76 567.276 C 1041.56 566.772 1047.01 575.803 1050.18 581.322 C 1079.65 632.64 1118.79 679.837 1067.24 732.57 C 1081.02 731.841 1113.79 737.18 1121.52 750.669 C 1125.4 757.436 1110.11 789.08 1106.41 797.552 C 1127.42 776.208 1150.95 756.178 1172 734.528 C 1203.13 702.517 1232.63 668.885 1261.31 634.673 C 1276.23 616.867 1292.36 598.683 1306.03 579.998 C 1303.4 577.224 1299.36 573.916 1296.4 571.333 C 1292.55 575.195 1284.31 581.54 1278.95 578.423 C 1263.62 569.515 1283.36 537.815 1294.54 536.472 C 1312.48 534.317 1314.51 546.805 1305.44 560.519 L 1315.49 569.569 C 1326.06 556.944 1338.43 540.694 1349.59 529.069 z"/>
<path transform="translate(0,0)" fill="#0A0A0A" d="M 887.727 996.373 C 917.269 992.401 943.042 1003.07 967.307 1018.43 C 961.836 1025.34 955.676 1032.27 949.895 1038.97 C 942.35 1029.44 937.339 1019.98 931.072 1009.69 C 928.334 1005.19 925.836 1002.7 920.523 1003.42 C 911.197 1013.69 934.234 1038.05 940.557 1048.04 C 940.275 1063.39 945.886 1055.38 952.356 1061.16 C 971.995 1078.69 995.843 1099.63 1023.1 1102.55 C 1026.95 1117.05 1027.96 1134 1026.89 1148.9 C 1023.89 1188.02 1005.42 1224.34 975.566 1249.81 C 900.153 1313.46 786.645 1244.46 774.24 1154.76 C 769.052 1116.15 779.527 1077.08 803.329 1046.25 C 824.273 1019.11 853.56 1000.79 887.727 996.373 z"/>
<path transform="translate(0,0)" fill="#0A0A0A" d="M 1200.14 765.688 C 1202.46 766.785 1211.48 776.085 1213.95 778.52 C 1142.63 869.083 1066.86 992.364 1038.17 1103.97 C 1035.94 1094.16 1032.88 1084.57 1029.03 1075.28 C 1017.49 1048.01 1007.2 1035.44 986.881 1014.92 C 997.573 1003.19 1008.17 990.688 1018.34 978.47 C 1077.96 906.843 1140.48 837.223 1200.14 765.688 z"/>
<path transform="translate(0,0)" fill="#0A0A0A" d="M 1180.07 746.776 C 1181.52 747.661 1189.85 755.597 1191.6 757.227 C 1150.81 802.864 1110.67 849.068 1071.17 895.824 C 1040.39 931.782 1006.19 970.606 976.709 1007.51 C 967.803 999.929 953.592 992.871 942.727 988.611 C 931.802 984.614 926.024 982.792 914.5 981.564 C 913.012 979.203 911.485 976.236 910.123 973.742 C 942.771 953.14 977.882 930.044 1007.25 904.984 C 1066.21 854.677 1123.98 800.328 1180.07 746.776 z"/>
<path transform="translate(0,0)" fill="#0A0A0A" d="M 1355.96 543.422 C 1363.41 544.734 1366.26 545.451 1372.93 549.286 C 1378.79 551.655 1385.34 564.521 1380.97 570.132 C 1358.34 599.143 1332.96 626.711 1310.86 656.183 C 1302.45 647.317 1292.67 638.738 1283.61 630.459 C 1304.17 603.21 1333.59 570.09 1355.96 543.422 z"/>
<path transform="translate(0,0)" fill="#0A0A0A" d="M 1039.87 589.689 C 1059.37 606.945 1046.56 645.215 1054.45 649.403 C 1060.87 647.576 1063.88 638.264 1065.5 632.574 C 1083.58 665.077 1085.81 689.203 1062.9 719.565 C 1070.81 685.885 1057.96 678.306 1046.67 652.714 L 1046.24 651.705 C 1044.14 646.8 1042.69 641.256 1037.13 640.156 C 1028.59 644.72 1015.8 673.609 1011.97 683.348 C 1007.35 695.071 1009.3 708.086 1011.42 720.143 C 1008.9 716.429 1006.54 712.599 1004.38 708.665 C 975.958 656.147 1026.49 632.998 1039.87 589.689 z"/>
<path transform="translate(0,0)" fill="#0A0A0A" d="M 1290.78 657.636 C 1293.01 659.258 1298.76 665.114 1301.03 667.308 C 1277.09 700.123 1246.23 733.592 1222.32 767.328 L 1209.56 755.229 C 1216.92 745.106 1228.26 732.434 1236.55 722.627 C 1254.85 701.152 1272.93 679.487 1290.78 657.636 z"/>
<path transform="translate(0,0)" fill="#0A0A0A" d="M 750.076 897.188 C 764.599 895.462 779.15 897.707 793 902.059 C 791.185 909.907 789.815 914.61 787.196 922.234 C 779.402 925.654 775.256 926.608 766.923 928.675 C 757.489 930.045 717.521 933.484 726.113 909.013 C 728.217 903.021 743.269 898.687 750.076 897.188 z"/>
<path transform="translate(0,0)" fill="#0A0A0A" d="M 1273.6 641.651 C 1276.41 643.656 1280.87 648.3 1283.52 650.874 C 1278 658.224 1264.03 673.445 1257.46 681.101 L 1200.45 747.477 L 1189.75 735.717 C 1220.57 703.85 1245 675.397 1273.6 641.651 z"/>
<path transform="translate(0,0)" fill="#0A0A0A" d="M 1036.5 660.676 C 1040.39 664.568 1051.48 690.41 1051.99 697.862 C 1053.34 717.82 1048.01 725.848 1036.85 740.261 C 1011.17 710.118 1020.7 691.131 1036.5 660.676 z"/>
<path transform="translate(0,0)" fill="#0A0A0A" d="M 976.862 1026.72 C 996.186 1041.82 1010.07 1066.16 1018.81 1088.62 L 1005.17 1082.97 C 987.003 1074.1 972.131 1063.28 958.709 1048 C 965.611 1040.48 970.56 1034.89 976.862 1026.72 z"/>
<path transform="translate(0,0)" fill="#0A0A0A" d="M 1193.8 920.225 C 1209.73 918.948 1217.85 920.79 1233.33 925.188 C 1224.08 932.475 1218.24 936.371 1207.59 941.344 C 1173.26 953.025 1158.08 927.931 1193.8 920.225 z"/>
<path transform="translate(0,0)" fill="#0A0A0A" d="M 1069.83 745.373 C 1084.78 744.369 1095.08 748.966 1107.93 755.3 C 1099.17 761.516 1097 762.117 1086.47 764.016 C 1067.87 764.233 1061.86 762.061 1047.3 750.516 C 1055.42 746.997 1061.2 746.432 1069.83 745.373 z"/>
<path transform="translate(0,0)" fill="#0A0A0A" d="M 997.581 745.392 C 1009.34 744.825 1015.62 747.272 1026.65 750.438 C 1015.6 758.721 1009.91 761.727 996.116 763.808 C 982.358 763.814 977.521 761.713 965.822 755.233 C 977.612 748.307 984.119 746.531 997.581 745.392 z"/>
<path transform="translate(0,0)" fill="#C9A84C" d="M 1041 339.54 C 1045.13 340.379 1049.59 345.612 1052.32 348.855 C 1066.73 365.975 1075.42 383.084 1080.62 404.751 C 1082.33 403.072 1084.11 401.472 1085.97 399.957 C 1096.64 391.145 1118.77 381.193 1132.42 381.65 C 1147.22 382.146 1135.55 423.144 1133.3 430.42 C 1143.91 430.55 1163.63 430.877 1171 439.551 C 1172.15 442.776 1172.48 445.899 1170.83 449.017 C 1158.66 472.036 1145.73 485.379 1123.22 496.067 C 1162.09 504.817 1202.61 522.355 1237.04 542.665 C 1244.23 546.906 1254.96 551.793 1257.4 560.113 C 1256.68 564.429 1257.51 562.478 1254.47 566.019 C 1251.94 566.762 1248.51 565.412 1246.32 564.163 C 1220.83 549.637 1196.88 535.966 1169.43 525.229 C 1126.1 508.469 1080.01 499.978 1033.56 500.195 C 926.953 501.19 827.343 547.713 753.29 623.514 C 674.212 704.662 630.908 814.089 633.043 927.376 C 640.877 919.165 644.077 916.503 654.006 911.089 C 654.768 869.672 658.655 836.869 672.507 797.33 C 709.307 692.283 781.954 606.277 882.671 557.743 C 966.837 516.763 1063.91 511.205 1152.21 542.311 C 1184.91 553.812 1212.37 567.617 1241.05 587.124 C 1246.82 591.049 1257.87 597.363 1260.73 603.326 C 1260.78 608.359 1255.49 613.237 1252.8 611.539 C 1236.11 601.008 1220.59 590.246 1203.21 580.614 C 1156.97 554.832 1105.37 540.17 1052.48 537.788 C 956.579 534.098 863.218 569.097 793.377 634.92 C 726.208 697.055 682.408 780.368 669.304 870.926 C 667.2 886.219 668.849 901.724 666.591 916.665 C 666.368 918.141 646.259 932.72 643.599 935.243 C 614.032 963.283 606.234 1010.12 615.35 1048.6 C 619.27 1065.15 627.753 1087.59 639.314 1100.29 C 626.321 1058.76 623.349 1017.16 656.704 983.395 C 662.931 977.093 679.29 965.052 687.964 965.115 C 691.336 967.443 691.655 968.472 692.575 972.824 C 698.879 1002.66 696.337 1025.32 680.178 1051 C 672.053 1062.26 663.296 1068.54 655.815 1080.99 C 644.418 1099.97 664.197 1119.44 661.295 1131.29 C 659.815 1132.43 657.995 1134.11 655.757 1133.31 C 646.673 1130.07 636.525 1118.15 626.485 1116.39 C 606.113 1112.8 591.583 1123.53 569.773 1122.49 C 543.383 1121.23 524.664 1110.97 506.345 1092.1 C 502.972 1088.62 502.164 1087.71 502.311 1083.61 C 503.266 1081.94 504.409 1080.12 506.056 1079.11 C 532.995 1062.48 551.621 1058.89 581.343 1063.33 C 545.745 1040.02 523.393 1018.57 520.29 973.355 C 519.854 967.013 518.025 957.371 522.291 952.351 C 532.955 947.523 559.625 963.247 568.375 969.95 C 583.54 981.568 590.827 994.642 598.568 1011.51 C 600.255 980.063 604.973 968.34 620.113 941.136 C 618.257 899.672 618.917 875.066 626.674 833.356 C 576.988 851.858 533.482 846.058 501.832 799.005 C 498.086 793.435 494.224 788.027 492.547 781.436 C 493.273 773.018 510.597 768.486 517.45 766.2 C 533.394 760.881 548.96 759.936 565.568 761.316 C 555.55 740.111 548.544 714.226 551.171 690.675 C 552.542 678.381 582.358 693.864 587.577 696.64 C 620.421 714.113 632.536 737.281 643.177 771.478 C 643.948 756.942 644.702 737.654 641.225 723.129 C 631.089 680.777 604.836 626.643 638.973 588.124 C 653.879 571.303 680.759 570.973 696.335 588.292 C 702.913 595.499 706.305 605.055 705.744 614.796 C 704.727 632.431 692.642 648.974 673.359 647.479 C 661.655 646.669 652.006 634.867 653.942 623.31 C 654.63 619.206 657.76 614.573 662.404 615.367 C 666.897 620.055 668.556 634.856 675.564 634.902 C 684.557 634.96 691.973 624.254 692.393 615.311 C 692.787 607.688 689.945 600.253 684.567 594.835 C 680.825 591.074 673.211 587.906 668.003 588.489 C 633.155 592.387 631.88 634.858 637.8 661.177 C 641.365 677.026 647.255 691.256 651.047 706.492 C 654.095 718.922 655.823 731.639 656.204 744.431 C 676.286 692.872 719.513 635.655 759.735 598.49 C 762.34 596.084 767.927 590.957 769.12 587.874 C 761.976 583.412 743.353 588.258 733.845 585.951 C 728.76 584.716 705.325 580.299 706.975 572.445 C 710.297 556.627 722.83 572.208 731.456 572.403 C 744.806 575.154 755.879 571.827 768.646 573.8 C 756.786 554.119 743.109 538.9 720.734 531.128 C 714.582 528.991 710.067 530.165 705.161 527.795 C 701.306 523.348 700.863 520.372 705.317 516.584 C 713.127 514.525 719.593 516.94 727.509 518.843 C 715.615 467.094 736.891 456.497 767.137 501.147 C 770.851 494.529 777.487 482.979 785.684 483.312 C 792.147 487.188 794.77 496.885 797.795 504.128 C 800.364 485.552 803.519 470.055 814.617 454.327 C 823.427 441.599 837.064 433.033 852.354 430.622 C 875.559 427.12 897.895 441.222 900.966 465.141 C 902.308 475.346 899.309 485.646 892.699 493.535 C 881.29 507.218 860.752 511.946 846.187 499.488 C 834.415 489.418 835.284 463.761 854.192 462.386 C 856.345 462.23 858.457 464.131 859.716 465.803 C 860.577 473.75 849.555 478.174 851.845 487.015 C 860.092 497.512 879.011 493.959 885.024 480.831 C 887.971 474.433 888.216 467.119 885.706 460.537 C 878.86 442.851 859.518 439.528 843.885 446.733 C 812.05 461.404 811.833 499.975 805.726 529.473 C 802.513 544.991 798.512 556.328 792.332 570.486 C 848.405 528.991 892.68 509.928 959.748 493.934 C 957.525 492.743 955.318 491.521 953.128 490.269 C 936.568 480.749 919.204 461.791 912.546 443.955 C 906.744 428.412 940.421 428.019 948.967 428.031 C 946.333 415.476 943.667 397.044 947.667 384.565 C 949.84 377.786 958.428 381.274 963.158 382.359 C 980.28 386.286 990.403 392.722 1003.73 403.839 C 1008.86 381.465 1023.31 353.832 1041 339.54 z"/>
<path transform="translate(0,0)" fill="#0A0A0A" d="M 1041.53 357.549 C 1056.07 369.754 1068.89 398.584 1068.9 417.878 C 1068.91 444.385 1059.33 461.692 1041.32 480.223 L 1040.76 480.466 C 1030.13 475.013 1016.88 447.144 1015.27 434.276 C 1011.28 402.317 1022.93 381.96 1041.53 357.549 z"/>
<path transform="translate(0,0)" fill="#0A0A0A" d="M 545.52 774.386 C 582.575 772.684 604.792 789.914 623.599 820.796 C 611.169 824.711 602.017 827.866 589.111 830.03 C 549.897 831.078 529.394 816.875 508.152 784.248 C 522.961 778.974 530.066 775.76 545.52 774.386 z"/>
<path transform="translate(0,0)" fill="#0A0A0A" d="M 563.936 700.174 C 615.576 720.245 631.486 754.631 631.883 807.252 C 631.172 806.588 626.32 800.325 625.885 799.592 C 615.883 782.76 597.29 775.008 584.514 764.453 C 570.674 753.019 564.085 718.151 563.936 700.174 z"/>
<path transform="translate(0,0)" fill="#0A0A0A" d="M 532.562 965.889 C 569.337 980.186 583.027 1001.16 595.347 1037.86 C 598.145 1046.19 602.203 1054.22 604.134 1062.96 C 598.9 1059.85 593.445 1055.15 588.065 1051.88 C 551.813 1029.9 536.005 1008.96 532.562 965.889 z"/>
<path transform="translate(0,0)" fill="#0A0A0A" d="M 958.337 394.84 C 979.616 400.909 985.513 404.041 1001.08 419.603 C 1003.27 453.611 1007.54 457.086 1025.24 484.136 C 978.798 473.399 960.549 439.709 958.337 394.84 z"/>
<path transform="translate(0,0)" fill="#0A0A0A" d="M 1124.25 396.099 L 1125.63 396.459 C 1129.14 406.231 1118.82 433.651 1113.46 442.845 C 1100.35 465.326 1083.25 477.152 1058.41 483.88 L 1057.67 483.777 C 1057.47 483.397 1057.27 483.017 1057.07 482.637 C 1061.6 477.653 1066.91 470.763 1070.03 465.324 C 1078.67 450.234 1080.7 437.282 1083.02 420.656 C 1097.48 405.267 1103.98 401.573 1124.25 396.099 z"/>
<path transform="translate(0,0)" fill="#0A0A0A" d="M 551.887 1075.28 C 582.707 1072.03 598.426 1083.27 620.896 1101.81 C 607.993 1102.19 600.773 1104.31 588.358 1107.56 C 560.593 1112.17 539.877 1106.43 519.901 1086.25 C 529.812 1080.41 540.694 1077.38 551.887 1075.28 z"/>
<path transform="translate(0,0)" fill="#0A0A0A" d="M 680.685 981.2 C 688.159 999.687 679.828 1031.27 667.256 1045.93 C 660.211 1054.15 651.935 1062.94 646.436 1072.16 L 645.723 1073.37 C 642.256 1063.01 642.85 1044.23 645.118 1033.47 C 650.061 1010 661.002 994.366 680.685 981.2 z"/>
<path transform="translate(0,0)" fill="#0A0A0A" d="M 1128.9 444.305 C 1132.94 444.049 1136.99 443.899 1141.04 443.855 C 1145.91 443.841 1151.34 443.382 1154.87 446.878 C 1155.28 449.01 1155.8 450.734 1154.3 452.803 C 1141.5 470.366 1130.05 479.91 1110.25 486.359 C 1101.23 488.931 1095.12 488.676 1085.86 488.664 C 1098.89 480.031 1108.84 472.627 1117.86 459.641 C 1121.34 454.636 1124.96 448.837 1128.9 444.305 z"/>
<path transform="translate(0,0)" fill="#0A0A0A" d="M 939.699 441.299 C 945.162 440.917 948.476 441.556 953.817 442.305 C 960.488 453.802 968.088 466.539 978.376 475.29 C 983.255 479.441 988.317 482.354 993.483 486.971 C 990.994 487.94 987.44 487.417 984.54 487.287 C 956.075 482.407 941.081 467.795 927.447 443.458 C 931.399 442.536 935.673 441.944 939.699 441.299 z"/>
<path transform="translate(0,0)" fill="#0A0A0A" d="M 781.729 499.6 C 782.786 500.484 783.179 500.835 783.776 502.226 C 793.772 525.526 788.75 543.38 781.896 565.365 C 770.33 546.446 771.598 518.861 781.729 499.6 z"/>
<path transform="translate(0,0)" fill="#0A0A0A" d="M 737.698 487.358 C 760.357 503.213 759.965 517.787 761.253 542.662 C 740.795 523.415 735.335 516.243 737.698 487.358 z"/>
<path transform="translate(0,0)" fill="#C9A84C" d="M 1562.56 317.665 C 1567.31 321.388 1572.16 326.277 1576.67 330.759 C 1624 377.767 1677.34 420.604 1712.69 477.866 C 1713.21 478.71 1712.38 486.029 1712.2 487.638 C 1717.48 483.267 1724.13 478.546 1729.7 474.384 L 1740.16 489.223 L 1728.7 498.705 C 1757.96 535.933 1780.36 579.034 1801.1 621.421 C 1809.34 638.265 1825.31 665.273 1824.23 683.768 L 1841.97 677.013 L 1847.8 694.376 C 1843.41 696.339 1840.25 697.23 1835.69 698.617 C 1839.51 708.865 1842.96 719.583 1846.45 729.975 C 1886.94 711.831 1907.61 749.519 1906.46 784.384 C 1906.03 797.292 1903.64 807.339 1899.09 819.358 L 1884.69 810.052 C 1892.71 784.455 1893.57 734.116 1852.43 749.354 C 1862.49 785.947 1874.78 829.114 1881.78 866.404 C 1892.31 922.518 1893.95 984.989 1894.12 1042.04 L 1878.21 1041.63 L 1877.63 1030.54 C 1847.22 1030.03 1814.08 1030.93 1783.44 1031.06 C 1783.13 1025.87 1782.72 1020.68 1782.19 1015.51 C 1792.82 1000.54 1803.56 972.267 1812.11 954.673 C 1818 953.239 1824.13 952.497 1830.14 951.617 C 1837.01 959.532 1843.66 967.628 1850.1 975.895 C 1859.09 966.507 1866.97 956.383 1874.93 946.143 L 1873.77 931.632 C 1856.81 916.571 1821.2 903.568 1800.19 923.113 C 1794.72 928.212 1795.34 936.048 1796.14 943.103 L 1775.88 942.688 C 1770.83 916.6 1785.76 902.442 1809.68 895.584 C 1831.47 889.336 1851.13 894.912 1870.43 905.901 C 1869.2 891.025 1866.67 875.368 1864.49 860.519 C 1836.06 868.116 1799.98 875.164 1770.62 881.707 L 1766.38 862.29 C 1776.58 859.74 1813.94 852.953 1818.32 847.768 C 1818.22 837.814 1789.07 834.287 1781 822.954 C 1770.05 807.599 1772.54 794.932 1787.55 783.131 C 1791.6 786.607 1795.66 789.796 1799.85 793.099 C 1792.87 801.854 1789.63 815.286 1805.97 815.705 C 1823.4 816.153 1833.36 794.885 1838.38 781.238 C 1838.39 781.196 1841.65 781.314 1843.48 779.341 C 1842.85 772.654 1838.57 761.108 1836.33 754.297 C 1807.76 764.475 1776.44 773.669 1747.29 783.312 C 1744.99 777.639 1742.7 769.753 1740.79 763.765 C 1770.42 753.687 1800.21 744.082 1830.14 734.955 L 1824.09 715.267 C 1823.75 714.004 1821.3 708.215 1820.68 706.696 C 1810.77 709.03 1795.09 715.516 1785.31 719.264 C 1767.42 725.972 1749.63 732.947 1731.95 740.188 C 1729.07 733.273 1727.19 728.078 1724.87 720.949 C 1740.99 714.406 1757.21 708.133 1773.53 702.132 C 1804.75 690.389 1818.88 692.822 1800.42 658.554 C 1772.83 671.047 1744.01 685.713 1716.68 699.078 C 1714.38 695.26 1710.23 685.489 1708.2 681.021 C 1716.81 676.074 1750.37 662.356 1752.26 655.035 C 1745.47 641.371 1680.26 649.258 1703.47 600.47 L 1720.33 606.235 C 1718.78 609.831 1716.93 613.863 1717.88 617.796 C 1718.57 620.806 1720.53 623.369 1723.25 624.827 C 1740.47 633.899 1755.04 605.728 1754.88 591.895 C 1754.74 580.151 1757.71 585.07 1760.64 579.66 C 1760.17 574.584 1756.67 569.263 1754.16 564.57 C 1753.31 564.273 1752.46 563.991 1751.61 563.723 C 1724.99 555.444 1691.16 566.672 1682.52 595.147 C 1684.14 602.07 1684.92 604.267 1687.73 610.815 L 1671.34 618.339 C 1649.87 587.446 1674.68 557.656 1704.26 546.564 C 1716.47 541.988 1725.59 541.927 1738.55 542.083 C 1732.54 530.481 1724.73 517.8 1715.52 508.571 C 1689.85 525.924 1664.74 545.086 1639.1 562.926 L 1627.15 547.236 C 1649.37 530.319 1672.82 513.777 1695.44 497.327 C 1697.93 495.36 1699.49 489.098 1698.23 486.367 C 1682.74 452.973 1661.67 481.409 1650.28 498.507 C 1642.36 510.414 1630.95 519.997 1618.5 522.12 C 1609.45 523.663 1601.09 517.867 1594.67 512.77 C 1603.13 495.393 1600.89 504.955 1613.74 503.169 C 1633.38 500.442 1642.85 463.737 1661.16 457.612 C 1666.8 455.725 1670.94 455.458 1676 454.888 C 1667.89 443.997 1662.82 436.723 1652.67 427.755 C 1634.94 445.727 1604.84 478.295 1587 493.126 C 1582.54 488.912 1578.08 484.358 1573.71 480.012 C 1579.17 468.095 1577.12 460.066 1574.25 447.775 C 1564.32 446.353 1557.33 445.032 1548.5 439.673 C 1537.49 432.975 1529.61 422.155 1526.62 409.62 C 1521.12 386.473 1533.33 364.968 1544.78 345.971 L 1561.45 356.688 C 1548.83 375.824 1532.37 405.973 1557.36 423.224 C 1568.49 431.115 1581.63 427.877 1589.06 416.67 C 1592.49 411.493 1595.59 399.978 1587.03 397.459 C 1577.79 394.742 1575.01 403.729 1572.65 410.514 C 1556.01 403.428 1549.73 393.563 1567.02 380.551 C 1590.78 362.667 1618.4 393.916 1610.33 418.442 C 1606.6 429.776 1602.7 435.683 1592.1 441.841 L 1594.97 457.414 C 1604.47 448.435 1630.05 422.743 1638.43 412.956 C 1613.45 386.187 1578.96 355.789 1552.26 329.282 C 1555.58 325.418 1559.16 321.491 1562.56 317.665 z"/>
<path transform="translate(0,0)" fill="#0A0A0A" d="M 1824.36 972.638 C 1829.76 977.713 1842.14 998.265 1850.68 996.961 C 1859.02 995.689 1870.79 980.283 1876.77 973.448 L 1877.8 1007.17 L 1877.18 1009.24 C 1871.86 1010.91 1815.54 1010.7 1806.53 1010.72 C 1812.57 998.07 1818.51 985.375 1824.36 972.638 z"/>
<path transform="translate(0,0)" fill="#0A0A0A" d="M 1772.26 602.657 C 1776.07 606.443 1789.74 633.948 1793.18 640.673 L 1774.67 648.807 L 1771.88 650.224 C 1768.83 650.137 1767.32 639.247 1756.52 633.464 C 1768.36 623.904 1769.1 617.046 1772.26 602.657 z"/>
<path transform="translate(0,0)" fill="#0A0A0A" d="M 1850.45 803.622 C 1853.6 811.493 1857.91 832.316 1859.94 841.165 C 1852.67 842.479 1844.75 844.473 1837.48 846.148 C 1837.37 844.894 1837.22 843.644 1837.04 842.399 C 1835.75 834.245 1831.68 831.98 1825.4 827.503 C 1838.85 820.646 1842.39 816.008 1850.45 803.622 z"/>
<path transform="translate(0,0)" fill="#C9A84C" d="M 1408.94 594.982 C 1420.9 594.6 1430.88 600.035 1437.23 610.089 C 1464.79 653.757 1434.49 702.635 1423.07 745.927 C 1419.09 761.014 1418.86 777.286 1419.16 792.322 C 1427.1 763.729 1435.95 745.083 1460.1 725.537 C 1470.45 717.163 1500.47 701.567 1513.01 703.136 C 1519.14 707.537 1517.07 715.859 1516.02 722.536 C 1512.74 743.329 1507.34 761.005 1496.26 778.865 C 1509.94 777.312 1525.63 778.779 1538.83 782.696 C 1544.89 785.074 1571.82 790.308 1565.45 801.368 C 1548.76 830.312 1521.53 852.088 1487.32 854.772 C 1465.73 856.466 1448.4 851.428 1428.63 843.253 C 1431.62 886.368 1434.36 901.067 1430.02 945.479 C 1445.28 964.607 1452.01 988.705 1453.4 1012.78 C 1469.17 982.59 1491 961.908 1527.6 958.857 C 1529.86 958.668 1531.34 960.352 1532.5 961.93 C 1533.29 967.674 1531.96 975.895 1530.84 981.675 C 1521.77 1028.45 1500.9 1043.19 1465.14 1068.19 C 1480.3 1063.55 1491.14 1062.56 1507.05 1065.71 C 1517.45 1067.77 1541.11 1077.12 1546.67 1085.61 C 1546.97 1087.71 1547.26 1088.69 1546.31 1090.68 C 1543.53 1096.57 1535.68 1102.22 1530.8 1106.35 C 1485.82 1144.44 1451.66 1110.07 1422.39 1124.79 C 1404.44 1133.83 1395.4 1155.3 1384.19 1170.85 C 1362.05 1201.57 1331.27 1227.51 1295.42 1240.46 C 1257.08 1254.31 1216.78 1250.51 1179.67 1234.94 C 1167.88 1229.99 1156.79 1223.64 1145.21 1218.26 C 1122.76 1207.84 1094.51 1206.39 1071.64 1216.72 C 1062.67 1220.76 1055.15 1227.77 1045.83 1231.2 C 1043.01 1230.82 1043.22 1230.74 1041.11 1228.75 C 1038.89 1218.44 1057.96 1208.84 1065.76 1204.8 C 1088.97 1192.77 1120.44 1192.81 1144.2 1203.36 C 1162.21 1211.36 1177.3 1220.39 1196.3 1226.68 C 1265.69 1246.98 1324.54 1226.13 1369.16 1168.68 C 1385.71 1147.35 1412.61 1100.63 1397.18 1073.15 C 1387.36 1055.66 1375.68 1041.01 1373.63 1019.97 C 1371.85 1007.91 1376.29 977.936 1383.23 969.124 C 1384.67 968.448 1385.46 967.688 1386.71 968.181 C 1396.67 972.146 1409.54 989.344 1414.34 998.183 C 1434.25 1034.89 1422.83 1076.36 1411.35 1113.81 C 1441.83 1066.32 1458.19 994.68 1413.73 948.777 C 1401.25 935.89 1376.58 930.214 1365.21 947.198 C 1361.58 952.63 1360.69 960.589 1356.34 965.32 C 1337.95 968.561 1347.29 927.813 1383.88 923.622 C 1388.6 859.886 1375.7 796.08 1346.6 739.177 C 1342.88 731.939 1320.7 697.259 1322.23 693.017 C 1323.17 690.398 1324.38 689.877 1326.67 688.749 C 1329.07 688.824 1331.44 688.996 1333 691.043 C 1340.66 701.047 1348.64 714.468 1354.48 725.42 C 1387.21 786.379 1402.01 855.361 1397.17 924.382 C 1406.35 927.381 1409.28 929.353 1417.12 934.528 C 1424.87 856.261 1404.31 776.733 1367.45 708.689 C 1363.45 701.321 1361.81 700.512 1364.36 692.857 C 1367.02 690.419 1365.54 690.886 1368.8 691.001 C 1381.75 697.818 1402.07 750.371 1406.41 763.782 C 1408.1 751.952 1410.25 740.3 1414.23 728.51 C 1425.38 695.088 1442.85 663.614 1431.8 627.533 C 1426.17 609.125 1406.95 609.951 1403.97 601.805 C 1404.75 598.021 1405.97 597.496 1408.94 594.982 z"/>
<path transform="translate(0,0)" fill="#0A0A0A" d="M 1498.64 792.269 C 1520.09 790.676 1529.69 793.034 1549.87 800.757 C 1536.06 824.144 1515.47 836.382 1489.23 840.851 C 1467.8 841.87 1456.97 839.939 1436.89 831.928 C 1453.01 809.951 1471.7 796.479 1498.64 792.269 z"/>
<path transform="translate(0,0)" fill="#0A0A0A" d="M 1500.7 719.049 C 1502.12 719.032 1501.33 718.878 1502.93 719.92 C 1498.34 753.713 1489.26 778.213 1458.77 792.739 C 1448.78 797.5 1434.77 813.21 1428.33 822.259 L 1427.43 822.473 C 1426.27 818.941 1428.22 809.42 1428.96 805.514 C 1437.24 761.675 1458.84 734.182 1500.7 719.049 z"/>
<path transform="translate(0,0)" fill="#0A0A0A" d="M 1515.46 973.877 L 1518.35 973.861 L 1518.91 975.38 C 1505.97 1035.45 1489.18 1029.3 1450.65 1063.48 L 1449.2 1064.51 C 1448.13 1060.62 1461.87 1024.42 1464.75 1018.49 C 1476.55 994.208 1490.48 982.497 1515.46 973.877 z"/>
<path transform="translate(0,0)" fill="#0A0A0A" d="M 1484.42 1077.31 C 1501.18 1075.75 1515.95 1081.03 1530.27 1089.1 C 1516.74 1104.52 1498.66 1110.85 1478.74 1112.14 C 1460.56 1112.38 1453.71 1105.93 1431.4 1108.03 C 1447.45 1089.17 1460.06 1080.82 1484.42 1077.31 z"/>
<path transform="translate(0,0)" fill="#0A0A0A" d="M 1389.72 987.454 C 1411.97 1004.06 1414.85 1044.65 1409.52 1069.54 C 1403.51 1056.76 1393.98 1046.28 1389.66 1032.48 C 1384.88 1017.23 1386.6 1002.74 1389.72 987.454 z"/>
<path transform="translate(0,0)" fill="#C9A84C" d="M 950.857 121.428 C 953.316 121.084 953.393 121.19 955.886 121.555 C 958.953 124.516 958.932 131.124 959.403 135.598 C 990.259 128.947 1028.42 133.215 1060.15 132.283 C 1109.97 130.819 1158.53 141.939 1207.59 148.918 C 1219.66 150.634 1217.51 157.11 1225.65 159.083 C 1225.59 159.18 1229.42 141.526 1229.69 140.328 C 1236.1 141.277 1242.27 143.057 1248.54 144.704 C 1247.39 149.552 1246.39 154.663 1245.35 159.558 C 1265.54 163.289 1357.84 191.692 1370.13 203.808 C 1370.87 206.577 1371.2 207.665 1372.3 210.412 C 1373.95 208.369 1379.48 194.037 1380.74 190.896 L 1398.08 198.057 C 1396.46 202.795 1394.17 208.008 1392.25 212.689 C 1423.62 226.57 1449.9 242.19 1479.1 260.18 C 1491.62 267.894 1508.03 276.456 1519.46 285.124 L 1510.81 298.363 C 1507.37 295.661 1501.95 292.54 1498.11 290.164 C 1481.51 316.84 1465.07 343.615 1448.79 370.487 C 1441.63 366.687 1437.6 363.89 1430.92 359.18 C 1437.49 348.866 1465.55 312.27 1457.78 301.124 C 1447.68 294.269 1442.73 303.816 1438.06 310.99 C 1433.25 309.055 1427.19 305.436 1422.53 302.865 L 1423.39 300.662 C 1440.41 257.86 1369.46 289.799 1418.73 312.985 C 1415.86 319.97 1414.82 322.469 1410.79 328.822 L 1410.01 328.541 C 1376.61 316.163 1369.37 281.48 1403.39 262.138 C 1413.56 256.36 1437.32 263.007 1439.45 275.671 C 1439.85 278.056 1441.48 281.002 1442.78 283.318 C 1447.88 281.916 1450.65 279.059 1456.38 280.74 C 1464.1 283.006 1467.94 287.804 1471.89 294.204 L 1480.24 279.318 C 1458.73 266.596 1437.21 253.768 1415.61 241.207 C 1406.4 235.856 1395.93 232.268 1386.24 227.598 C 1372.85 253.852 1359.34 285.476 1347.05 312.674 C 1340.23 309.848 1334.58 307.184 1327.95 303.917 C 1333.53 291.465 1365.74 229.302 1362.05 219.909 C 1359.12 212.428 1345.51 208.877 1338.54 206.173 C 1333.51 218.01 1312.25 274.694 1311.28 283.479 C 1312.85 286.201 1312.7 285.063 1312.68 287.896 L 1304.86 293.454 C 1302.65 292.642 1297.05 290.645 1295.53 289.064 C 1279.36 272.269 1264.05 251.561 1248.73 233.781 C 1250.86 228.459 1252.07 222.555 1253.4 216.956 C 1274.56 206.39 1293.04 207.154 1315.74 205.858 C 1316.75 205.801 1318.11 201.593 1318.6 200.429 L 1317.6 198.98 C 1302.34 190.707 1258.71 178.397 1241.24 175.447 C 1237.87 190.104 1234.24 204.703 1230.38 219.238 C 1226.84 234.781 1223.11 250.281 1219.2 265.734 C 1213.31 264.795 1204.67 262.288 1198.67 260.727 C 1205.36 233.477 1215.18 204.202 1218.07 176.264 C 1219.48 162.624 1176.3 161.719 1167.64 159.034 C 1160.98 156.969 1148.18 154.364 1143.63 160.567 C 1144.02 170.353 1163.02 178.288 1171.06 181.974 C 1219.82 204.303 1167.26 265.537 1129.18 247.36 C 1107.91 237.207 1116.03 212.894 1118.66 195.122 C 1120.76 180.941 1122.54 166.963 1124.89 152.857 C 1111.03 150.055 1104.54 149.424 1090.34 149.262 C 1089.61 180.379 1089.1 211.501 1088.82 242.625 L 1068.88 241.833 C 1068.56 232.914 1074.17 180.745 1061.08 178.377 C 1050.59 176.48 1049.34 188.459 1048.93 196.997 L 1030.39 197.909 C 1029.89 191.329 1028.64 179.655 1019.27 179.719 C 1007.16 179.802 1001.66 198.545 1011.37 205.798 C 1018.56 211.17 1025.91 209.539 1034.17 208.519 C 1034.81 213.965 1034.87 220.201 1035.07 225.736 C 1030.46 226.815 1025.74 227.345 1021.01 227.314 C 987.245 226.818 974.842 191.757 997.833 168.371 C 1009.78 156.221 1027.86 158.396 1038.94 172.203 C 1048.79 159.943 1054.92 157.443 1069.82 164.787 L 1069.99 148.283 C 1033 148.067 997.496 146.513 960.846 151.313 C 964.455 182.759 967.662 214.249 970.468 245.777 C 963.477 246.39 956.475 246.875 949.466 247.23 L 944.813 197.916 C 943.46 183.113 945.289 149.996 923.06 154.39 C 913.428 156.295 877.749 161.461 873.034 166.841 C 872.743 171.419 873.626 172.555 877.33 174.693 C 895.972 173.125 911.767 174.889 921.516 193.674 C 925.735 201.803 926.621 208.143 923.582 216.855 C 920.814 224.792 912.452 237.257 902.473 232.502 C 897.558 230.181 896.188 223.21 894.737 218.404 C 902.624 214.463 911.344 207.252 902.16 198.206 C 895.206 191.355 887.718 191.872 878.678 192.082 C 882.069 209.095 886.036 225.988 890.571 242.732 L 897.103 247.519 L 891.31 256.772 C 888.007 257.43 884.439 258.535 881.166 259.448 C 857.746 248.87 838.316 240.443 813.738 233.08 C 811.426 227.669 810.037 222.096 808.428 216.43 C 819.592 199.959 834.832 189.45 851.581 179.411 C 854.211 177.835 855.74 174.826 854.056 171.952 C 847.778 168.156 802.936 180.511 792.699 182.825 C 791.275 177.674 790.264 172.56 789.16 167.336 C 817.562 160.729 846.01 154.327 874.504 148.131 C 891.157 144.343 908.679 139.568 925.607 137.528 C 936.532 136.211 934.23 142.646 940.731 142.391 C 941.226 137.992 939.231 127.309 938.477 122.381 L 950.857 121.428 z"/>
<path transform="translate(0,0)" fill="#0A0A0A" d="M 1140.8 185.874 C 1156.51 198.68 1185.64 200.461 1158.89 227.592 C 1123.87 250.305 1137.88 202.219 1140.8 185.874 z"/>
<path transform="translate(0,0)" fill="#0A0A0A" d="M 1299.65 225.379 L 1309.11 224.739 L 1296.48 262.797 L 1290.54 254.602 C 1284.83 246.869 1277.24 237.997 1271.09 230.444 C 1280.5 228.199 1290.04 226.508 1299.65 225.379 z"/>
<path transform="translate(0,0)" fill="#0A0A0A" d="M 857.985 197.337 C 859.307 199.163 866.129 229.589 867.238 234.184 C 860.613 231.147 853.949 228.195 847.248 225.328 C 841.807 222.858 836.099 221.252 830.39 219.474 C 838.745 210.058 846.927 203.232 857.985 197.337 z"/>
<path transform="translate(0,0)" fill="#C9A84C" d="M 1022.51 295.45 C 1074.37 294.175 1126.19 299.153 1176.86 310.274 C 1353.95 350.029 1508.08 458.337 1605.49 611.482 C 1708.04 769.232 1743.94 961.182 1705.32 1145.33 C 1681.28 1260.64 1629.25 1368.28 1553.83 1458.75 C 1546.4 1467.61 1521.53 1496.9 1513.01 1502.38 C 1502 1503.1 1506.51 1493.38 1511.6 1488.14 C 1544.87 1453.87 1574.27 1416.19 1599.74 1375.79 C 1669.41 1264.07 1706.9 1135.28 1708.08 1003.62 C 1708.9 816.584 1635.24 636.909 1503.38 504.259 C 1382.03 381.502 1217.34 311.28 1044.75 308.696 C 888.454 308.528 744.156 356.813 622.013 455.311 C 473.773 572.47 378.893 744.338 358.742 932.209 C 342.136 1095.32 384.068 1259.02 477.045 1394.06 C 491.613 1415.31 507.316 1435.76 524.086 1455.32 C 534.155 1466.88 546.822 1479.19 555.997 1490.54 C 556.991 1495.51 554.432 1498.49 549.542 1499.29 C 537.455 1492 503.779 1450.06 494.132 1437.85 C 401.275 1320.1 348.285 1175.85 342.829 1025.99 C 337.473 835.526 408.555 650.836 540.224 513.107 C 665.227 378.724 839.038 300.282 1022.51 295.45 z"/>
<path transform="translate(0,0)" fill="#C9A84C" d="M 405.333 1515.38 C 411.372 1515.22 419.407 1515.16 424.905 1517.75 C 432.683 1521.43 486.136 1578.28 497.99 1589.34 L 499.16 1575.4 C 544.469 1557.02 562.898 1592.56 576.496 1628.79 C 571.427 1630.2 566.206 1631.29 561.066 1632.44 C 555.982 1616.4 548.432 1593.61 530.772 1588.51 C 524.533 1586.71 512.015 1585.84 510.116 1594.2 C 509.471 1597.04 511.99 1600.53 513.913 1602.48 C 532.381 1618.21 551.848 1633.06 571.599 1647.15 C 593.632 1662.87 615.546 1678.94 639.115 1692.32 C 661.633 1705.1 685.579 1715.49 709.137 1726.14 C 716.115 1729.28 734.146 1738.44 740.569 1738.59 C 749.005 1720.34 684.983 1729.84 710.852 1684.48 L 724.737 1692.1 C 712.291 1717.19 745.761 1709.22 755.081 1725.42 C 759.655 1733.37 757.798 1738.22 756.002 1746.67 C 772.241 1752.99 774.196 1746.73 785.352 1763.27 C 796.767 1765.31 801.676 1747.55 817.981 1776.58 L 822.795 1758.84 C 832.299 1761.36 834.653 1760.78 836.569 1770.84 C 848.829 1776.36 906.744 1786.5 921.436 1788.59 L 919.399 1802.89 L 908.234 1801.2 C 903.531 1820.03 900.009 1847.68 895.443 1868.57 L 878.529 1865.27 C 880.352 1857.34 881.893 1848.3 883.456 1840.25 C 880.501 1834.71 867.164 1815.38 858.684 1820.24 C 850.593 1824.88 855.845 1831.55 860.492 1836.73 C 859.754 1839.94 853.288 1846.95 850.826 1849.92 C 842.572 1843.8 835.958 1836.15 836.643 1825.18 C 836.998 1819.16 839.924 1813.58 844.676 1809.85 C 860.335 1797.61 877.515 1809.88 887.314 1823.07 C 888.476 1815.26 890.555 1805.9 892.082 1798.03 C 873.893 1793.52 850.698 1789.51 831.946 1785.75 C 827.511 1805.58 819.363 1832.05 813.683 1851.95 C 807.975 1850.11 802.816 1848.19 797.217 1846.08 C 802.041 1828.36 808.915 1808.61 812.808 1791.07 C 799.066 1762.96 778.282 1782.77 801.147 1795.58 L 795.601 1809.84 C 788.905 1806.72 786.815 1805.77 780.89 1801.43 L 777.522 1793.64 C 762.456 1800.77 749.89 1807.33 755.565 1782 C 761.884 1782.35 770.345 1783.31 773.236 1776.08 C 775.222 1772.04 769.387 1766.45 765.933 1765.04 C 749.7 1758.41 732.776 1751.65 716.572 1744.96 C 711.225 1755.17 695.11 1784.02 702.416 1793.72 C 710.587 1798.47 727.142 1789.15 727.241 1780.79 C 724.61 1777.64 721.549 1776.84 717.697 1775.21 C 719.105 1770.52 721.136 1765.87 722.982 1761.32 C 763.806 1771.64 740.575 1789.48 728.413 1807.83 C 723.611 1815.08 716.063 1838.91 712.186 1848.52 C 701.413 1844.73 698.173 1845.86 695.309 1833.87 C 677.908 1817.65 630.554 1828.91 657.596 1781.56 C 661.76 1784.77 666.242 1787.81 670.554 1790.83 C 655.232 1817.94 690.709 1804.99 703.529 1825.03 L 709.257 1809.9 C 656.959 1801.57 696.257 1767.84 686.988 1760.07 C 672.978 1758.21 639.955 1799.33 630.889 1749.47 C 635.323 1748.34 641.237 1747.43 645.838 1746.58 C 647.007 1751.92 647.129 1755.39 652.369 1758.01 C 662.299 1757.26 662.218 1744.71 662.484 1737.41 C 657.73 1729.16 653.441 1728.35 648.525 1721.38 C 648.446 1721.27 650.284 1719.49 649.978 1715.78 C 646.98 1712.61 642.946 1711.71 638.71 1710.17 C 621.98 1713.75 607.671 1721.86 602.656 1739.32 C 599.622 1749.88 610.084 1755.07 618.485 1756.72 L 617.665 1772.72 C 594.847 1767.55 577.964 1752.98 588.63 1727.63 C 595.355 1711.64 607.055 1704.81 622.52 1698.85 C 611.299 1693 599.84 1684.42 589.319 1677.38 C 585.672 1674.94 576.908 1668.19 573.287 1666.82 L 572.819 1668.3 C 575.224 1678.52 581.125 1682.15 589.302 1688.22 C 588.983 1694.42 588.908 1696.34 589.729 1702.66 C 570.417 1715.49 567.742 1720.73 557.838 1740.98 C 553.05 1738.03 547.995 1735.27 543.092 1732.51 C 551 1714.17 557.336 1707.4 571.712 1693.86 C 559.629 1680.61 557.615 1675.67 556.998 1657.94 C 555.285 1657.89 553.571 1657.85 551.857 1657.83 C 544.415 1657.77 540.96 1658.13 535.569 1663.46 C 534.479 1666.86 534.303 1665.32 535.714 1668.25 C 541.078 1672.35 543.966 1671.93 550.676 1671.2 C 553.996 1677.53 556.315 1682.39 559.14 1688.96 C 543.138 1721.52 511.747 1715.75 496.076 1685.55 C 486.992 1668.04 494.249 1646.33 501.02 1628.95 C 506.206 1630.81 511.108 1632.88 516.184 1634.99 C 491.716 1694 536.589 1703 540.982 1686.61 C 538.047 1685.49 525.634 1680.69 523.937 1679.03 C 504.391 1659.96 525.347 1646.35 543.793 1644.48 C 528.861 1633.26 515.34 1623.49 501.278 1611.12 C 486.284 1627.14 470.219 1648.34 454.938 1662.95 L 443.023 1651.6 C 455.486 1635.7 474.192 1615.72 487.972 1600.05 L 474.472 1587.01 C 458.254 1602.02 441.346 1620.15 425.477 1635.94 L 413.821 1624.18 C 416.618 1593.63 411.734 1596.93 403.079 1573.21 L 402.703 1572.16 C 404.239 1567.55 406.689 1561.93 408.535 1557.34 C 430.446 1563.41 444.487 1569.61 465.142 1578.83 C 454.281 1565.23 436.786 1548.74 424.412 1536.41 C 407.863 1519.93 351.747 1548.61 385.15 1570.61 C 383.713 1575.36 381.641 1579.91 379.707 1584.49 C 335.832 1561.38 365.604 1518.86 405.333 1515.38 z"/>
<path transform="translate(0,0)" fill="#0A0A0A" d="M 421.351 1576.27 C 430.636 1579.68 439.531 1583.8 448.553 1587.83 C 445.902 1591.13 442.225 1594.81 439.268 1597.94 C 435.509 1601.77 432.697 1605.33 429.326 1609.47 C 428.507 1595.06 426.557 1589.83 421.351 1576.27 z"/>
<path transform="translate(0,0)" fill="#0A0A0A" d="M 670.524 1724.8 C 678.861 1727.65 691.925 1734.38 699.917 1738.48 L 695.754 1749.59 C 691.94 1749.59 689.857 1743.75 686.499 1743.91 C 683.09 1744.08 679.336 1745.26 675.604 1744.94 L 676.561 1734.09 L 670.524 1724.8 z"/>
<path transform="translate(0,0)" fill="#C9A84C" d="M 735.635 185.954 L 737.289 186.358 C 740.427 190.161 742.212 195.345 744.181 199.979 C 738.377 202.221 734.01 204.258 728.418 206.929 C 741.728 235.35 754.453 264.041 766.584 292.984 C 760.594 295.784 754.307 298.487 748.757 302.044 C 742.059 288.654 736.256 274.654 729.861 261.11 C 726.504 253.998 723.078 245.81 714.058 246.781 C 704.116 252.815 708.545 261.159 712.017 269.415 L 695.007 277.532 C 675.026 239.576 657.843 289.181 682.984 293.937 C 689.466 295.164 697.698 289.424 702.764 285.3 C 705.43 290.791 707.775 296.376 710.185 301.982 C 709.45 302.505 708.707 303.016 707.956 303.515 C 698.562 309.72 686.362 313.442 675.179 310.802 C 666.545 308.758 659.121 303.275 654.629 295.623 C 639.934 270.481 663.917 239.533 684.596 246.957 L 691.066 249.323 C 699.304 233.326 695.612 232.444 715.585 229.75 C 715.628 226.96 710.803 217.852 709.298 214.718 C 674.181 232.916 647.676 243.305 613.11 264.278 C 625.998 290.65 645.493 319.457 659.884 345.554 C 655.218 349.223 647.654 353.347 642.34 356.451 C 626.52 332.13 609.518 300.883 593.989 275.22 C 584.819 279.761 579.548 282.66 571.807 289.313 C 589.732 308.41 577.388 328.096 553.002 330.708 C 543.565 331.718 537.075 326.472 530.762 320.119 C 524.417 324.365 520.291 327.61 514.368 332.479 C 514.733 333.004 518.698 338.386 519.093 338.326 C 538.337 335.379 552.103 327.831 563.648 351.855 C 568.499 340.846 574.056 330.163 580.285 319.87 C 585.239 319.98 590.548 320.291 595.527 320.501 C 599.262 344.98 610.56 358.588 628.038 375.358 C 624.09 380.615 619.21 385.19 614.552 389.85 C 600.632 379.513 589.149 362.994 583.957 346.442 C 568.026 381.435 590.694 409.702 535.927 417.59 C 533.957 411.618 532.823 405.299 531.544 399.129 C 541.046 398.589 551.823 397.276 555.503 386.556 C 560.172 372.953 550.355 358.615 538.22 352.584 C 519.179 353.958 529.631 369.067 536.26 377.211 C 530.523 382.516 526.714 385.225 520.271 389.772 C 509.213 378.893 503.86 367.902 509.515 352.733 C 504.648 349.668 502.891 348.047 498.735 344.297 C 487.215 352.448 479.552 359.811 469.663 369.6 C 482.251 385.477 518.041 425.897 534.727 434.546 C 530.526 441.303 528.825 443.585 523.577 449.569 C 495.35 454.132 480.072 456.467 452.377 463.682 C 448.123 459.018 444.709 455.022 440.751 450.102 C 443.515 427.8 449.648 412.458 457.979 391.767 C 458.952 389.35 456.162 387.123 454.639 385.308 C 452.07 386.081 432.013 407.535 428.476 411.047 C 419.99 419.475 409.07 429.905 403.203 440.265 C 404.781 454.12 410.557 467.161 419.755 477.642 C 432.612 492.536 450.159 501.516 467.01 486.733 L 480.042 501.542 C 454.502 530.453 415.032 510.89 397.935 483.982 C 389.15 470.156 385.248 458.376 382.187 442.272 C 391.566 419.718 469.536 345.952 491.233 330.034 C 513.438 313.743 563.02 273.082 586.186 261.889 C 572.083 240.632 570.853 221.179 593.011 204.176 C 613.565 188.403 639.188 184.941 664.438 188.168 L 662.56 204.145 C 643.187 203.481 625.27 204.071 608.538 215.014 C 592.514 225.493 595.064 237.445 604.783 250.86 C 627.689 235.514 653.764 224.74 678.383 212.386 C 697.12 202.983 716.559 194.684 735.635 185.954 z"/>
<path transform="translate(0,0)" fill="#0A0A0A" d="M 473.402 405.393 C 476.37 407.243 498.562 430.574 502.566 434.701 C 497.96 435.259 493.358 435.846 488.759 436.461 C 479.523 437.477 470.289 439.554 461.29 441.792 C 464.696 427.716 467.757 418.739 473.402 405.393 z"/>
<path transform="translate(0,0)" fill="#0A0A0A" d="M 553.962 301.963 C 558.362 301.418 558.249 301.707 561.405 303.38 C 564.637 309.643 561.676 312.898 556.827 316.968 C 551.227 316.189 546.326 315.546 546.489 308.881 C 548.256 305.134 550.328 304.353 553.962 301.963 z"/>
<path transform="translate(0,0)" fill="#C9A84C" d="M 600.144 1156.19 C 616.697 1154.65 616.416 1161.11 627.21 1161.57 C 645.325 1162.34 640.074 1157.62 657.547 1170.07 C 674.483 1168.22 686.035 1170.94 696.352 1185.44 C 708.266 1185.57 717.675 1186.66 728.136 1192.49 C 764.074 1212.5 754.551 1244.36 765.504 1274.43 C 773.958 1292.54 786.578 1309.39 791.956 1328.9 C 796.977 1347.12 803.573 1378.89 778.015 1384.76 C 755.619 1381.83 747.782 1356.8 729.202 1344.59 C 697.528 1323.77 657.736 1340.64 628.669 1312.15 C 617.517 1301.22 613.916 1288.69 613.724 1273.53 C 596.628 1262.15 593.637 1251.14 595.892 1231.68 C 579.87 1212.62 588.787 1216.79 587.952 1199.65 C 587.078 1181.7 572.379 1169.53 600.144 1156.19 z"/>
<path transform="translate(0,0)" fill="#0A0A0A" d="M 692.412 1201.28 C 714.602 1199.98 730.393 1206.47 739.664 1227.73 C 746.147 1241.7 744.019 1261.24 750.129 1275.05 C 761.875 1301.6 781.111 1324.09 783.151 1354.37 C 783.614 1361.25 783.447 1370.42 774.057 1370.1 C 766.67 1365.1 770.114 1347.69 768.665 1339.68 C 767.708 1334.39 765.612 1328.09 763.561 1323.32 C 752.377 1297.26 731.136 1287.45 705.946 1278.49 C 697.48 1275.17 688.209 1269.29 684.723 1260.57 C 681.677 1252.95 685.028 1239.64 694.094 1237.79 C 705.453 1235.47 704.759 1247.52 707.467 1254.94 C 716.705 1261.07 729.489 1236.33 704.21 1225.1 L 703.017 1224.58 C 679.824 1223.22 665.806 1238.15 670.338 1261.56 C 675.991 1290.75 710.753 1291.21 730.991 1305.22 C 749.018 1317.7 754.62 1332.52 758.552 1353.39 C 732.201 1321.97 717.151 1319.32 676.472 1315.99 C 592.953 1309.14 633.1 1210.65 692.412 1201.28 z"/>
<path transform="translate(0,0)" fill="#0A0A0A" d="M 663.985 1184.19 C 667.737 1184.08 675.896 1185.07 677.95 1188.47 C 645.234 1202.98 633.714 1216.34 618.446 1249.02 C 617.889 1251.6 617.542 1252.44 616.581 1254.93 L 614.735 1255.43 C 612.232 1253.33 611.794 1251.27 610.996 1248.14 C 605.942 1228.29 623.4 1207.83 637.552 1195.96 C 645.741 1189.09 653.665 1186.18 663.985 1184.19 z"/>
<path transform="translate(0,0)" fill="#0A0A0A" d="M 628.338 1175.18 C 632.138 1175.04 638.149 1174.25 640.596 1177.46 C 623.954 1189.19 619.604 1191.52 607.344 1209.02 C 605.851 1211.58 605.386 1212.18 603.496 1214.48 L 601.636 1214.56 L 600.278 1212.34 C 599.043 1196.19 615.049 1181.97 628.338 1175.18 z"/>
<path transform="translate(0,0)" fill="rgb(244,244,252)" d="M 603.198 1168.64 C 607.534 1168.75 605.934 1168.02 609.035 1169.83 C 608.073 1173.61 602.675 1178.04 599.475 1181.32 C 598.036 1183.29 598.969 1182.7 596.786 1183.25 C 594.273 1177.41 599.164 1172.11 603.198 1168.64 z"/>
<path transform="translate(0,0)" fill="#C9A84C" d="M 1429.34 1166.25 C 1446.34 1165.16 1463.49 1171.04 1472.31 1187.43 C 1485.77 1212.73 1465.5 1251.7 1434.33 1240.82 C 1421.78 1236.43 1414.52 1221.79 1419.11 1208.92 C 1420.95 1203.73 1427.42 1204.41 1431.39 1207.61 C 1433.45 1212.31 1430.43 1214.47 1430.88 1217.99 C 1432.84 1233.35 1451.99 1230.67 1459.03 1220.61 C 1462.78 1215.26 1464.39 1207.43 1463.25 1201.89 C 1460.01 1186.13 1442.25 1176.11 1426.97 1180.42 C 1394.95 1188.88 1371.31 1236.66 1356.1 1262.34 C 1320.03 1323.23 1263.25 1363.56 1191.05 1339.54 C 1179.51 1335.95 1168.44 1331.15 1157.17 1326.47 C 1130.66 1315.46 1104.2 1312.33 1076.07 1319.33 C 1044.34 1327.22 1024.4 1347.97 999.103 1366.96 C 979.349 1381.79 956.834 1393.8 931.849 1399.94 C 900.303 1407.7 863.098 1402.51 834.393 1386.83 C 831.239 1385.1 828.259 1380.75 827.422 1376.98 C 831.059 1367.18 846.384 1378.49 852.622 1380.81 C 902.275 1399.23 951.233 1386.75 992.397 1355.13 C 1007.19 1343.76 1022.35 1330.72 1038.93 1320.41 C 1070.39 1300.45 1112.7 1295.2 1147.81 1308.34 C 1168.03 1315.91 1183.03 1323.48 1204.61 1328.77 C 1218.55 1332.21 1233.01 1333.08 1247.26 1331.33 C 1289 1325.82 1312.9 1299.49 1336.88 1268.27 C 1334.16 1270.14 1331.41 1271.97 1328.62 1273.75 C 1283.65 1302.46 1233.26 1307.39 1183.83 1287.09 C 1163.76 1278.84 1148.59 1268.82 1127.05 1264.21 C 1114.21 1261.53 1101.01 1261.11 1088.03 1262.97 C 1039.86 1269.57 1019.38 1301.62 980.971 1326.27 C 949.371 1346.82 910.521 1355.77 873.527 1346.71 C 859.602 1343.36 845.155 1338.27 832.707 1331.09 C 825.731 1327.08 808.641 1320.17 811.646 1310.47 C 819.876 1302.89 826.631 1313.4 835.147 1317.98 C 864.749 1333.93 897.368 1339.95 930.398 1333.13 C 995.891 1319.61 1027.23 1248.36 1098.02 1248.12 C 1127.66 1246.29 1152.71 1257.39 1178.99 1270.2 C 1242.62 1301.24 1315.32 1283.06 1359.41 1228.36 C 1380.51 1202.18 1392.9 1172.35 1429.34 1166.25 z"/>
<path transform="translate(0,0)" fill="#C9A84C" d="M 327.269 507.487 C 330.619 510.423 337.229 514.34 341.196 516.863 C 338.297 521.535 334.724 526.113 331.433 530.55 C 354.779 547.209 387.032 566.02 412.028 580.363 C 409.543 585.765 406.955 591.118 404.264 596.419 C 380.671 604.935 357.784 615.29 335.812 627.389 C 329.813 623.077 326.845 620.925 321.54 615.839 C 319.43 591.669 322.634 577.53 326.945 554.028 L 320.356 548.936 C 309.875 564.157 285.501 607.614 279.533 623.677 C 306.731 640.044 339.538 651.755 367.414 667.033 C 382.301 657.511 396.24 655.795 413.402 652.236 C 413.773 657.484 413.864 663.46 414.055 668.776 C 406.026 670.389 398.034 672.188 390.088 674.171 C 392.015 677.482 393.719 681.379 395.358 684.879 C 400.213 702.173 393.061 719.093 375.724 725.637 C 363.34 730.311 348.042 723.328 344.82 710.147 C 342.167 699.295 346.77 690.787 351.997 681.727 C 335.361 674.05 314.592 665.113 298.787 656.479 C 300.703 677.629 303.181 698.835 304.621 720.002 L 286.681 719.935 C 285.679 713.213 284.601 700.08 272.589 704.388 C 266.494 706.574 261.311 713.95 258.638 719.789 L 245.274 720.152 C 225.44 699.849 229.541 668.511 251.3 651.139 C 257.409 646.262 262.191 645.016 269.451 642.86 C 260.235 638.527 252.425 634.874 242.864 631.222 C 245.726 625.582 247.865 619.579 250.149 613.667 L 262.786 618.799 C 278.269 584.512 306.935 539.437 327.269 507.487 z"/>
<path transform="translate(0,0)" fill="#0A0A0A" d="M 344.57 563.547 C 357.097 571.691 368.329 578.338 381.32 585.722 L 363.881 591.98 C 354.271 595.503 347.84 598.404 338.837 603.142 C 340.31 589.876 341.629 576.564 344.57 563.547 z"/>
<path transform="translate(0,0)" fill="#0A0A0A" d="M 272.772 658.953 C 274.283 658.942 275.263 659.1 276.762 659.264 C 280.341 663.464 280.721 678.462 281.396 684.911 C 271.48 684.913 266.753 685.985 258.797 691.652 C 256.606 693.968 256.625 694.558 253.844 695.519 C 248.876 689.664 251.394 681.948 254.349 675.456 C 258.697 665.901 263.231 662.599 272.772 658.953 z"/>
<path transform="translate(0,0)" fill="#0A0A0A" d="M 371.929 683.494 C 384.141 686.758 383.036 703.356 370.808 709.897 C 355.922 703.683 363.595 691.458 371.929 683.494 z"/>
<path transform="translate(0,0)" fill="#C9A84C" d="M 175.124 913.933 L 190.242 914.254 L 189.781 920.069 C 189.599 925.385 188.766 932.88 191.092 937.365 C 198.518 940.704 273.029 946.404 287.026 947.547 C 286.566 954.424 285.897 961.285 285.021 968.121 C 266.762 966.92 205.981 957.662 192.58 964.564 C 189.444 966.179 187.176 968.424 186.296 971.907 C 184.512 978.961 184.108 1030.93 186.829 1035.76 C 190.484 1036.19 190.466 1036.06 193.899 1035.34 C 196.316 1031.65 197.216 1023.5 198.494 1018.94 C 199.628 1013.64 201.748 1009.67 204.347 1004.88 C 212.845 989.206 236.702 982.908 251.455 993.117 C 257.438 997.257 260.897 1005.38 262.082 1012.58 C 263.649 1022.09 247.928 1025.84 242.568 1020.23 C 241.884 1015.85 242.021 1013.97 239.453 1010.58 C 222.715 999.57 211.611 1029.15 216.059 1034.39 C 223.736 1036.33 273.999 1033.37 284.704 1033.05 C 284.859 1039.53 285.109 1044.38 285.774 1050.82 C 268.298 1067.3 256.486 1089.68 246.347 1111.18 L 227.382 1111.02 C 221.935 1102.54 199.226 1061.75 195.029 1057.57 C 192.146 1057.2 191.647 1056.73 189.236 1058.08 C 186.458 1062.78 188.193 1071.66 189.207 1077.09 C 192.48 1094.63 189.216 1131.21 204.436 1142.96 C 225.713 1159.38 283.944 1158.81 278.184 1120.39 C 285.816 1119.68 298.89 1116.97 299.461 1129.19 C 300.637 1154.37 273.989 1169.86 251.933 1173.01 C 225.86 1176.73 205.354 1168.32 184.518 1153.15 C 172.632 1108.66 170.269 1054.41 168.995 1008.53 C 168.659 996.447 168.441 982.287 169.352 970.219 C 169.907 962.856 173.357 960.548 179.033 956.247 L 158.471 955.724 C 158.79 949.367 159.431 943.274 160.067 936.946 L 172.819 937.041 C 173.018 930.302 172.864 925.184 174.704 918.677 L 175.124 913.933 z"/>
<path transform="translate(0,0)" fill="rgb(244,244,252)" d="M 175.124 913.933 L 190.242 914.254 L 189.781 920.069 L 174.704 918.677 L 175.124 913.933 z"/>
<path transform="translate(0,0)" fill="#0A0A0A" d="M 251.749 1054.46 C 254.574 1054.07 254.404 1054.06 257.182 1054.69 C 250.499 1066.06 242.834 1076.4 235.791 1088.61 L 231.566 1081.57 C 226.158 1073.18 220.963 1064.65 215.987 1056 C 227.912 1055.59 239.833 1055.08 251.749 1054.46 z"/>
<path transform="translate(0,0)" fill="#C9A84C" d="M 1177.44 1784.34 C 1179.8 1783.86 1179.98 1783.99 1182.42 1784.19 C 1185.2 1786.86 1185.1 1793.38 1185.46 1797.53 L 1173.34 1799.02 C 1176.07 1822.18 1180.23 1843.65 1182.48 1867.63 L 1166.44 1869.68 C 1151.63 1854.85 1140.27 1849.44 1119.19 1848.92 L 1110.99 1833.38 C 1124.73 1821.48 1145.2 1810.89 1161.28 1801.42 C 1140.39 1803.36 1119.73 1807.2 1098.21 1808.99 C 1104.47 1826.5 1097.35 1823.3 1096.83 1838.57 C 1096.38 1851.6 1097.92 1866.75 1098.18 1880.17 L 1081.54 1880.39 C 1071.54 1872.39 1061.78 1869.39 1049.36 1868.55 L 1043.16 1852.51 C 1051.32 1847.57 1061.37 1842.85 1070.01 1838.53 C 1033.53 1824.61 1057.29 1835.57 1037.6 1850.41 C 1014.62 1825.8 1037.99 1824.36 1041.87 1815.19 L 1039.35 1811.26 C 1031.5 1810.99 1022.81 1811.24 1014.89 1811.29 C 1014.18 1834.02 1013.16 1856.74 1011.83 1879.44 L 994.997 1878.61 C 995.445 1870.41 995.809 1862.21 996.089 1854.01 C 990.177 1845.51 977.907 1832.07 966.549 1838.67 C 963.023 1845.35 968.126 1848.66 973.098 1852.32 C 969.811 1858.37 968.149 1861.09 964.08 1866.62 C 962.613 1865.64 961.184 1864.6 959.799 1863.5 C 928.884 1839.39 962.301 1800.54 997.98 1835.12 C 997.86 1826.93 998.201 1818.38 998.405 1810.16 C 980.527 1808.86 962.433 1807.88 944.529 1806.81 L 945.571 1792.61 C 973.136 1793.97 1001.01 1796.63 1028.65 1796.94 C 1079.75 1797.51 1127.04 1791.87 1177.44 1784.34 z"/>
<path transform="translate(0,0)" fill="#0A0A0A" d="M 1158.88 1820.14 C 1160.2 1822.68 1162.86 1844.13 1163.47 1848.45 C 1156.84 1843.95 1154.26 1842.51 1146.94 1839.51 L 1133.48 1835.09 C 1141.4 1829.69 1150.47 1824.86 1158.88 1820.14 z"/>
<path transform="translate(0,0)" fill="#0A0A0A" d="M 1057.75 1810.51 C 1070.17 1809.75 1089.6 1805.99 1082.34 1826.05 C 1071.22 1828.48 1059.71 1822.22 1057.75 1810.51 z"/>
<path transform="translate(0,0)" fill="#0A0A0A" d="M 1078.51 1847.81 L 1080.25 1848.26 C 1081.5 1852.28 1081.09 1860.37 1081.08 1864.91 L 1070.33 1859.64 L 1061.67 1855.66 C 1067.2 1853.4 1073.07 1850.42 1078.51 1847.81 z"/>
<path transform="translate(0,0)" fill="#C9A84C" d="M 1827.13 1047.03 C 1832.85 1046.98 1839.03 1047.68 1844.77 1048.16 C 1844.71 1061.87 1849.66 1076.25 1867.69 1067.04 C 1874.6 1063.51 1876.23 1054.97 1877.49 1047.74 C 1883.04 1048.04 1888.62 1049.04 1894.13 1049.88 C 1892.55 1067.08 1890.6 1071.52 1878.43 1083.23 C 1893.77 1099.42 1890.36 1111.79 1876.15 1126.72 C 1883.59 1127.08 1890.99 1127.92 1898.32 1129.22 C 1897.17 1135 1896.28 1142.18 1895.4 1148.12 C 1891.33 1147.41 1886.75 1147.04 1882.6 1146.61 C 1878.32 1182.08 1865.06 1231.59 1855.82 1266.67 L 1840.19 1262.37 L 1843.72 1249.99 C 1812.81 1242.98 1781.2 1234.9 1750.36 1227.38 L 1755.01 1206.94 C 1769.56 1210.99 1778.67 1214.84 1795.78 1210.18 C 1806.38 1207.3 1826.02 1190.96 1808.22 1180.61 C 1805.28 1178.9 1799.44 1181.58 1796.32 1183.3 C 1793.26 1183.63 1794.82 1183.81 1791.65 1181.99 C 1778.54 1156.13 1819.22 1151.48 1830.04 1169.66 C 1842.13 1189.97 1830.83 1208.86 1813.59 1221.28 L 1848.67 1230.54 C 1854.89 1206.37 1863.35 1171.41 1866.34 1146.51 C 1836.67 1140.77 1801.34 1139.36 1771.62 1133.51 L 1774.33 1113.64 C 1798.56 1116.78 1832.02 1122.34 1856.5 1121.19 C 1869.35 1120.58 1875.04 1098.24 1859.22 1092.21 C 1855.63 1090.84 1851.63 1091.04 1848.19 1092.77 C 1840.58 1096.66 1838.85 1103.56 1836.35 1110.97 C 1810.91 1107.26 1820.22 1088.6 1836.02 1078.76 C 1825.65 1069.4 1822.69 1060.71 1827.13 1047.03 z"/>
<path transform="translate(0,0)" fill="#C9A84C" d="M 219.492 718.033 L 234.884 721.774 C 233.414 726.92 229.995 734.876 232.342 740.003 C 235.455 746.802 308.67 768.558 321.08 773.238 C 319.074 779.728 317.076 786.605 314.954 793.02 L 267.282 776.304 C 253.595 771.554 222.718 756.319 217.373 776.977 C 212.402 796.188 207.234 815.673 203.266 835.14 C 211.459 837.278 230.155 843.118 237.705 841.684 C 250.488 831.151 229.153 818.601 234.092 807.405 C 247.836 795.629 279.918 801.371 290.375 816.506 C 299.661 829.948 302.126 840.793 299.742 857.438 C 293.349 889.284 273.588 900.151 244.455 900.222 L 248.642 879.101 C 257.279 879.164 266.69 878.72 272.415 871.652 C 289.52 850.532 282.787 827.739 258.229 820.031 C 260.245 830.297 262.995 840.685 255.478 853.248 C 249.991 862.42 210.184 877.018 224.535 894.19 C 226.342 896.351 234.229 894.218 236.606 897.533 C 236.95 901.734 237.877 911.35 235.258 914.607 C 230.515 916.745 224.723 917.815 220.105 915.18 C 192.688 899.537 203.126 875.342 220.953 859.508 L 199.575 854.499 C 195.852 874.721 193.365 894.038 190.242 914.254 L 175.124 913.933 C 170.355 901.287 196.391 794.787 201.279 772.857 C 203.009 765.095 205.928 761.05 211.302 755.414 L 194.234 750.485 C 196.021 744.966 198.271 738.562 199.778 733.05 C 203.925 734.13 209.834 735.476 213.688 736.984 C 215.368 731.21 217.389 723.503 219.492 718.033 z"/>
<path transform="translate(0,0)" fill="#C9A84C" d="M 877.616 1473.37 C 895.156 1473.1 906.137 1480.97 920.552 1489.52 C 918.704 1492.04 916.036 1495.04 913.994 1497.48 C 901.981 1491.06 897.493 1487.59 883.676 1484.56 C 871.686 1481.92 859.634 1493.5 866.608 1500.91 C 870.241 1501.58 872.304 1501.63 875.301 1503.81 C 877.231 1507.19 877.045 1507.72 877.032 1511.52 C 874.027 1515.11 874.206 1511.03 869.107 1513.67 C 867.44 1523.94 868.173 1552.64 868.204 1563.97 L 855.618 1564.1 L 855.392 1512.97 L 839.006 1512.95 L 838.907 1564.06 L 826.071 1564.12 C 826.201 1552.03 826.382 1539.79 826.296 1527.76 C 826.263 1523.01 826.469 1517.87 822.724 1515.24 C 819.847 1513.22 818.595 1511.24 814.712 1511.42 C 809.681 1515.38 813.175 1521.85 810.727 1529.39 C 799.848 1538.4 811.635 1538.59 812.831 1547.09 C 811.248 1553.54 809.57 1555.35 804.618 1559.88 L 803.582 1560.81 C 809.181 1562.95 813.173 1565.02 818.507 1567.73 L 814.365 1576.11 C 807.432 1572.61 803.95 1571.36 796.681 1569.13 C 790.649 1567.28 777.263 1565.22 772.694 1562.55 C 771.804 1558.89 772.076 1558.16 772.552 1554.52 C 777.933 1550.92 798.583 1560.56 799.043 1545.55 C 796.325 1540.69 792.956 1539.47 787.817 1541.9 C 785.119 1547.46 779.393 1551.72 773.863 1547.28 C 773.084 1536.93 779.88 1537.9 781.618 1531.3 C 780.038 1528.57 781.118 1529.18 778.805 1528.53 C 767.482 1542.39 758.959 1538.72 749.131 1526.07 C 751.894 1523.91 752.493 1523.58 755.615 1521.9 C 759.988 1521.79 765.785 1526.7 767.713 1524.79 C 770.72 1521.82 773.36 1517.71 770.42 1513.76 C 762.276 1510.7 751.661 1516.74 746.791 1509.37 C 746.65 1505.81 746.828 1505.88 748.312 1502.81 C 766.666 1499.21 798.949 1503.71 818.546 1502.23 C 820.357 1502.1 823.839 1504.81 825.978 1505.65 C 826.476 1502.89 826.431 1500.65 826.941 1497.79 C 829.624 1495.4 834.105 1494.8 836.478 1497.67 C 841.648 1503.92 847.5 1502.54 854.914 1502.25 C 853.18 1499.64 851.078 1496.85 849.227 1494.28 C 856.633 1481.01 862.414 1475.43 877.616 1473.37 z"/>
<path transform="translate(0,0)" fill="#0A0A0A" d="M 783.964 1512.77 C 790.08 1512.53 794.856 1511.1 799.328 1515.57 C 800.514 1519.36 799.941 1521.15 799.453 1525.23 C 788.462 1528.8 786.679 1521.45 783.964 1512.77 z"/>
<path transform="translate(0,0)" fill="#C9A84C" d="M 1371.3 1314.49 C 1374.09 1315.53 1375.88 1316.23 1377.53 1318.68 C 1378.54 1320.18 1378.78 1322.47 1378.11 1323.9 C 1370.45 1340.08 1338.32 1363.33 1323.7 1371.87 C 1281.94 1396.27 1235.49 1403.1 1189.23 1388.77 C 1172.91 1383.72 1156.89 1375.82 1140.39 1371.79 C 1106.59 1363.49 1071.14 1370.81 1043.14 1391.41 C 1034 1398.13 1024.14 1407.99 1014.54 1413.3 C 1010.78 1411.69 1009.74 1411.34 1007.97 1407.87 C 1008.15 1403.95 1008.64 1403.17 1011.7 1400.12 C 1046.77 1364.74 1097.7 1343.56 1147.07 1359.46 C 1179.27 1369.83 1205.3 1383.32 1241.01 1382.09 C 1280.53 1380.74 1316.8 1364.84 1346.75 1339.13 C 1355.79 1331.37 1363.1 1322.95 1371.3 1314.49 z"/>
<path transform="translate(0,0)" fill="#C9A84C" d="M 1560.32 1597.14 C 1595.37 1595.81 1637.1 1654.47 1592.05 1673.54 C 1557.71 1677.26 1514.48 1613.76 1560.32 1597.14 z"/>
<path transform="translate(0,0)" fill="#0A0A0A" d="M 1557.89 1606.78 C 1568.27 1611.08 1576.38 1619.71 1583.84 1628.29 C 1589.94 1635.32 1600.48 1647.42 1599.65 1657.46 C 1599.42 1660.26 1596.54 1661.88 1594.5 1663.45 C 1582.2 1659.58 1570.42 1645.98 1562.77 1636.01 C 1555.96 1627.13 1545.7 1615 1557.89 1606.78 z"/>
<path transform="translate(0,0)" fill="#C9A84C" d="M 1265.96 1064.6 C 1268.25 1064.61 1268.7 1064.72 1270.97 1065.04 C 1284.37 1073.03 1281.29 1105.9 1277.54 1119.04 C 1271.13 1141.05 1256.39 1159.69 1236.45 1171.01 C 1172.17 1206.74 1135.35 1140.28 1080.45 1171.2 C 1075.6 1173.22 1073.47 1171.47 1071.21 1167.48 C 1072.36 1147.67 1118.34 1147.42 1132.64 1151.88 C 1147.24 1156.44 1161.58 1162.21 1176.45 1165.75 C 1233.94 1179.43 1281.04 1128.4 1263.22 1071.98 C 1262.4 1069.36 1264.39 1066.65 1265.96 1064.6 z"/>
<path transform="translate(0,0)" fill="#C9A84C" d="M 1217.15 437.17 C 1254.07 434.589 1273.38 459.736 1280.23 493.128 C 1282.16 502.503 1287.61 524.642 1276.52 529.273 L 1274.17 528.269 C 1267.9 519.969 1268.96 503.3 1266 491.97 C 1262.54 476.968 1257.23 463.24 1242.85 455.137 C 1225.15 445.165 1207.55 448.858 1197.55 466.38 C 1197.3 467.431 1197.07 468.486 1196.85 469.544 C 1192.87 488.966 1206.51 506.873 1228.08 496.703 C 1237.26 492.374 1218.72 475.216 1226.31 469.427 C 1233.75 468.535 1241.09 472.521 1242.62 479.751 C 1251.06 519.545 1193.93 524.929 1184.15 486.948 C 1181.38 475.979 1183.26 464.351 1189.35 454.814 C 1196.25 444.054 1205.18 439.585 1217.15 437.17 z"/>
<path transform="translate(0,0)" fill="#C9A84C" d="M 1373.24 1716.93 C 1383.99 1725.03 1367.26 1729.09 1364.47 1740.32 C 1362.13 1749.73 1362.63 1752.6 1363.1 1762.34 C 1385.76 1727.77 1424.97 1766.91 1401.52 1797.13 C 1358.69 1830.52 1319.85 1756.04 1373.24 1716.93 z"/>
<path transform="translate(0,0)" fill="#0A0A0A" d="M 1374.28 1761.71 C 1389.46 1761.07 1402.41 1787.9 1387.58 1796.71 C 1376.22 1794.2 1367.21 1781.89 1367.81 1770.36 C 1368.01 1766.44 1371.52 1764.07 1374.28 1761.71 z"/>
<path transform="translate(0,0)" fill="#C9A84C" d="M 1421.17 1694.22 C 1463.54 1691.13 1470.98 1748.51 1447.67 1774.04 C 1443.7 1778.38 1442.77 1781.27 1436.36 1781.96 C 1432.96 1780.82 1434.09 1781.87 1432.49 1779.18 C 1432.82 1776.18 1437.27 1771.46 1439.39 1768.8 C 1440.16 1767.55 1440.9 1766.27 1441.59 1764.97 C 1443.99 1760.42 1450.02 1740.31 1444.07 1737.64 C 1441.46 1740.35 1433.84 1748.6 1431.13 1749.48 C 1409.13 1756.68 1391.95 1729.31 1401.19 1710.48 C 1405.95 1700.81 1412.55 1697.64 1421.17 1694.22 z"/>
<path transform="translate(0,0)" fill="#0A0A0A" d="M 1419.43 1704.11 C 1432.61 1706.56 1436.72 1717.32 1441.95 1728.27 C 1439.08 1732.23 1438.05 1733.22 1434.41 1736.53 C 1420 1738.1 1403.39 1712.24 1419.43 1704.11 z"/>
<path transform="translate(0,0)" fill="#C9A84C" d="M 1650.22 1497.54 C 1653.12 1498.31 1652.93 1498.38 1655.23 1500.4 C 1655.62 1505.17 1651.81 1510.72 1650.71 1515.38 C 1648.51 1524.68 1654.18 1534.69 1658.46 1542.4 C 1661.1 1535 1662.71 1530.05 1669.34 1525.3 C 1674.21 1521.76 1680.33 1520.42 1686.24 1521.59 C 1704 1525.04 1711.81 1542.33 1707.92 1559.1 C 1699.37 1579.3 1681.39 1583.86 1663.26 1572.09 C 1651.52 1564.53 1643.33 1552.55 1640.55 1538.87 C 1637.49 1523.14 1641.59 1510.38 1650.22 1497.54 z"/>
<path transform="translate(0,0)" fill="#0A0A0A" d="M 1671.85 1536.85 C 1681.92 1536.51 1687.84 1539.72 1694.62 1547.81 C 1700.03 1554.26 1700.59 1560.46 1692.73 1565.36 C 1679.31 1564.79 1655.43 1551.71 1671.85 1536.85 z"/>
<path transform="translate(0,0)" fill="#C9A84C" d="M 927.719 1495.78 C 929.352 1495.75 930.985 1495.77 932.617 1495.82 C 939.191 1496.08 939.803 1501.55 941.194 1501.77 C 962.151 1505.12 998.043 1498.32 1017.42 1502.76 L 1018.6 1504.77 C 1018.77 1507.92 1019.32 1509.48 1018.13 1512.1 C 1011.88 1514.1 950.73 1512.7 939.813 1512.64 C 939.612 1529.55 939.925 1547.02 940.013 1563.98 L 926.908 1564.15 C 926.838 1556.93 929.231 1530.55 923.962 1527.18 C 918.025 1528.52 905.036 1543.3 900.136 1548.33 C 895.727 1544.63 893.842 1543.89 893.074 1538.63 C 894.419 1535.65 894.819 1535.08 895.454 1531.81 C 892.82 1526.23 888.988 1529.22 883.196 1526.06 C 881.614 1525.2 877.584 1520.92 876.073 1519.34 C 893.701 1498.78 906.917 1493.17 927.234 1514.73 C 927.131 1508.31 927.438 1502.2 927.719 1495.78 z"/>
<path transform="translate(0,0)" fill="#0A0A0A" d="M 902.523 1511.95 C 907.316 1511.94 913.143 1512.38 913.54 1517.89 C 911.759 1522.11 908.578 1524.3 905.102 1527.43 C 902.477 1517.74 898.781 1521.81 893.381 1516.57 C 895.724 1513.99 899.171 1513.17 902.523 1511.95 z"/>
<path transform="translate(0,0)" fill="#C9A84C" d="M 1169.9 1498.11 C 1173.84 1497.77 1179.72 1497.19 1183.47 1498.72 C 1201.94 1506.23 1202.17 1535.14 1195.8 1550.93 C 1192.78 1558.42 1188.55 1561.96 1181.32 1565.02 C 1146.74 1570.19 1143.05 1510.93 1169.9 1498.11 z"/>
<path transform="translate(0,0)" fill="#0A0A0A" d="M 1173.28 1503.42 L 1177.49 1504.14 C 1188.61 1511.83 1186.17 1549.21 1179.22 1559.58 C 1160.86 1557.6 1165.63 1515.16 1173.28 1503.42 z"/>
<path transform="translate(0,0)" fill="#C9A84C" d="M 1319.24 1740.91 L 1320.34 1741.57 C 1322.54 1747.03 1322.92 1751.24 1323.83 1757.01 C 1314.65 1761.02 1302.95 1765.22 1293.37 1769.1 L 1296.7 1784.16 C 1304.91 1779.32 1314.64 1775.36 1324.31 1777.54 C 1339.25 1780.89 1346.33 1798.85 1342.25 1812.62 C 1339.97 1820.22 1334.59 1826.5 1327.43 1829.93 C 1319.56 1833.78 1307.7 1834.43 1299.38 1831.71 C 1297.74 1827.75 1294.16 1818.32 1298.6 1815.8 C 1306.94 1816.93 1314.53 1826.15 1323.12 1822.32 C 1328.74 1816.82 1327.42 1804.3 1323.92 1798.07 C 1322.09 1794.8 1318.93 1792.48 1315.26 1791.72 C 1305.91 1789.72 1299 1794.98 1291.68 1799.64 C 1287.55 1788.28 1283.48 1770.26 1280.37 1758.04 C 1293.94 1752.59 1308 1749.85 1319.24 1740.91 z"/>
<path transform="translate(0,0)" fill="#C9A84C" d="M 1610.37 1552.13 C 1645.5 1550.69 1637.5 1594.89 1635.55 1617.28 C 1640.41 1611.2 1649.47 1603.47 1653.66 1597.27 C 1654.28 1596.35 1652.17 1587.95 1656.19 1583.84 C 1660.38 1585.15 1667.6 1598.02 1670.5 1602.52 C 1663.31 1610.48 1650.08 1622.31 1641.88 1630.29 L 1633.67 1638.47 C 1631.29 1635.98 1629.35 1633.01 1627.36 1630.19 C 1626.99 1619.9 1631.4 1558.17 1600.93 1570.8 C 1593 1574.08 1599.27 1583.88 1601.04 1587.97 C 1602.27 1590.81 1596.63 1593.62 1593.62 1593.83 C 1575.01 1579.95 1592.4 1557.36 1610.37 1552.13 z"/>
<path transform="translate(0,0)" fill="#C9A84C" d="M 1508.16 1638.14 C 1549.83 1633.11 1535.22 1683.99 1529.56 1706.22 C 1536.99 1700.85 1544.51 1694.88 1551.8 1689.26 C 1551.05 1684.4 1549.95 1680.86 1553.39 1676.96 C 1559.01 1678.64 1564.12 1690.02 1567.24 1695.63 C 1561.4 1700.9 1550.98 1708.07 1544.35 1712.91 C 1537.41 1717.47 1533.49 1722.79 1525.95 1724.55 C 1522.14 1723.28 1522.87 1722.88 1519.89 1718.93 C 1521.67 1706.5 1533.28 1649.96 1504.36 1654.02 C 1497.37 1655.01 1499.19 1671.36 1496.24 1676.6 L 1494.22 1676.59 C 1476.31 1663.69 1493.09 1644.64 1508.16 1638.14 z"/>
<path transform="translate(0,0)" fill="#C9A84C" d="M 1295.05 1495.92 C 1297.39 1495.88 1296.93 1495.98 1299.29 1496.66 L 1300.19 1498.37 L 1299.27 1500.4 C 1284.33 1508.32 1281.79 1511.73 1276.91 1527.27 C 1281.26 1524.35 1284.74 1521.84 1290.14 1521.63 C 1294.83 1521.42 1299.4 1523.12 1302.82 1526.34 C 1313.12 1536.19 1309.57 1551.91 1300.42 1561.3 C 1299.04 1562.08 1297.64 1562.81 1296.22 1563.51 C 1262.36 1579.74 1241.77 1514.58 1295.05 1495.92 z"/>
<path transform="translate(0,0)" fill="#0A0A0A" d="M 1282.88 1529.72 C 1298.44 1530.09 1298.48 1550 1290.14 1559.54 C 1276.62 1558.7 1273.12 1538.45 1282.88 1529.72 z"/>
<path transform="translate(0,0)" fill="#C9A84C" d="M 654.566 1496.16 C 674.098 1502.48 673.641 1514.64 690.857 1520.73 C 695.356 1522.32 706.318 1523.53 711.711 1524.29 C 705.305 1525.93 690.799 1526.13 685.53 1529.06 C 678.945 1532.73 662.248 1555.45 653.999 1550.68 C 649.691 1538.42 663.335 1530.06 672.329 1525.84 C 659.025 1525.84 652.376 1526.75 640.296 1532.32 L 632.295 1535.53 C 622.043 1533.1 612.66 1529.26 602.025 1527.63 C 594.225 1526.43 580.369 1528.97 575.057 1522.54 L 575.493 1521.36 C 578.565 1519.46 585.524 1518.85 589.304 1518.82 C 604.765 1518.68 618.172 1516.67 633.231 1513.37 C 652.834 1520.92 650.145 1522.04 672.8 1522.87 C 660.467 1517.44 650.35 1511.56 654.566 1496.16 z"/>
<path transform="translate(0,0)" fill="#C9A84C" d="M 1342.45 1525.5 C 1345.9 1524.74 1356.2 1523.19 1359.98 1523.12 C 1373.79 1522.87 1385.44 1497.88 1398.21 1499.69 C 1404.1 1511.09 1391.31 1518.77 1382.92 1522.83 C 1397.36 1528.41 1408.02 1517.12 1419.69 1515.96 C 1427.36 1515.19 1443.89 1518.94 1452.41 1519.59 C 1459.59 1520.14 1466.92 1519.89 1474.01 1520.48 C 1475.5 1520.6 1477.63 1522.27 1478.77 1523.45 L 1478.97 1524.82 C 1474.11 1530.12 1460.13 1527.09 1452.88 1528.36 C 1441.73 1530.31 1431.34 1534.7 1420.41 1536.96 C 1409.24 1532.54 1394.03 1523.98 1381.9 1528.32 C 1390.47 1532.33 1399.13 1537.49 1399.55 1548.13 C 1399.68 1551.36 1399.7 1551.46 1397.68 1553.64 C 1388.47 1554.28 1374.32 1534.66 1367.53 1530.25 C 1364.89 1528.55 1347.82 1526.63 1342.45 1525.5 z"/>
<path transform="translate(0,0)" fill="#C9A84C" d="M 292.512 1320.52 C 305.737 1319.08 317.608 1328.67 318.988 1341.91 C 320.368 1355.14 310.733 1366.97 297.497 1368.3 C 284.333 1369.62 272.578 1360.05 271.205 1346.89 C 269.832 1333.73 279.358 1321.94 292.512 1320.52 z"/>
<path transform="translate(0,0)" fill="#C9A84C" d="M 1708.11 1382.55 C 1720.75 1378.75 1734.07 1385.97 1737.79 1398.64 C 1741.51 1411.31 1734.2 1424.58 1721.51 1428.21 C 1708.93 1431.81 1695.81 1424.58 1692.13 1412.03 C 1688.45 1399.48 1695.59 1386.31 1708.11 1382.55 z"/>
<path transform="translate(0,0)" fill="#C9A84C" d="M 985.758 1517.15 C 1022.09 1514.27 1024.26 1552.36 997.858 1559.76 C 988.615 1562.32 978.726 1560.96 970.512 1556.01 C 958.126 1548.48 952.326 1535.34 949.017 1521.91 L 961.091 1518.13 C 965.011 1530.77 969.553 1546.13 984.375 1549.15 C 1005.53 1553.45 1006.75 1526.68 994.021 1527.33 C 989.476 1530.43 986.488 1543.87 976.904 1535.76 C 973.043 1526.52 976.812 1522.29 984.648 1517.78 L 985.758 1517.15 z"/>
<path transform="translate(0,0)" fill="#C9A84C" d="M 1114.06 1498.07 C 1127.08 1497.37 1141.37 1499.66 1139.29 1516.58 C 1137.4 1531.98 1122.81 1543.73 1111.64 1553.13 L 1134.06 1553.23 C 1136.37 1549.55 1136.94 1547.81 1140.54 1546.46 L 1141.69 1547.86 C 1142.56 1553.75 1141.43 1558.74 1140.58 1564.66 L 1127.25 1564.58 C 1120.99 1564.56 1103.83 1566.26 1100.29 1561.89 C 1100.1 1552.53 1123.41 1534.7 1124.9 1522.01 C 1125.63 1519 1126.22 1513.9 1123.67 1511.29 C 1112.19 1499.52 1108.17 1515.4 1104.95 1517.71 C 1100.87 1518.1 1102.38 1518.76 1099.77 1516.86 C 1098.49 1508.45 1106.84 1500.96 1114.06 1498.07 z"/>
<path transform="translate(0,0)" fill="#C9A84C" d="M 1225.41 1498.17 C 1231.37 1497.82 1241.6 1498.24 1245.51 1502.8 C 1260.33 1520.08 1232.1 1544.23 1222.73 1553.06 L 1243.89 1553.41 C 1245.5 1550.01 1246.36 1547.7 1249.82 1546.38 L 1251.31 1547.53 C 1252.73 1553.02 1251.48 1558.69 1250.69 1564.34 L 1231.75 1564.64 C 1225.64 1564.84 1216.58 1565.49 1210.85 1564.39 C 1204.95 1557.16 1239.09 1531.83 1235.1 1517.31 C 1228.87 1494.58 1219.72 1516.54 1210.75 1518.71 L 1209.66 1517.3 C 1210.61 1505.17 1214.59 1501.81 1225.41 1498.17 z"/>
<path transform="translate(0,0)" fill="#C9A84C" d="M 1468.67 1656.8 L 1470.33 1657.02 C 1472.89 1659.59 1496.28 1745.87 1499.83 1758.55 C 1497.23 1760.45 1494.14 1762.31 1491.39 1764.06 L 1490.88 1764.33 L 1489.51 1763.52 C 1484.28 1747.48 1479.94 1728.15 1475.07 1711.63 C 1472.37 1702.51 1462.66 1670.49 1462.1 1662.29 C 1463.39 1659.41 1465.84 1658.49 1468.67 1656.8 z"/>
<path transform="translate(0,0)" fill="#C9A84C" d="M 1359.08 483.036 C 1360.96 483 1360.11 482.943 1362.22 483.259 C 1364.41 483.588 1366.09 484.896 1367.32 486.752 C 1370.22 491.129 1370.49 497.3 1369.28 502.262 C 1368.24 506.56 1366.6 509.763 1362.71 512.034 C 1355.47 511.434 1356.04 503.893 1355.94 498.248 C 1347.24 501.719 1330.14 509.394 1331.58 520.91 C 1332.24 525.608 1332.52 527.6 1330.04 531.701 C 1326.81 533.713 1328.51 533.294 1324.74 533.044 C 1316.05 527.766 1316.86 516.837 1321.05 508.719 C 1328.96 493.421 1343.8 488.15 1359.08 483.036 z"/>
<path transform="translate(0,0)" fill="#C9A84C" d="M 1409.88 640.469 C 1418.47 640.431 1421.79 646.309 1419.37 654.075 C 1415.8 665.555 1409.87 671.712 1399.54 677.362 C 1395.4 677.213 1392.08 677.048 1389.95 673.189 C 1390.54 665.871 1401.3 661.708 1404.59 656.76 C 1408.17 651.401 1404.53 647.173 1409.88 640.469 z"/>
<path transform="translate(0,0)" fill="#C9A84C" d="M 377.324 618.632 C 381.949 617.983 386.564 619.879 389.397 623.592 C 392.23 627.304 392.84 632.256 390.993 636.546 C 389.146 640.835 385.129 643.795 380.485 644.288 C 373.47 645.033 367.153 640.016 366.29 633.014 C 365.428 626.013 370.338 619.612 377.324 618.632 z"/>
<path transform="translate(0,0)" fill="#C9A84C" d="M 1774.83 962.537 C 1779.09 960.891 1783.91 961.678 1787.44 964.594 C 1790.96 967.51 1792.63 972.101 1791.8 976.598 C 1790.98 981.095 1787.79 984.797 1783.47 986.277 C 1776.96 988.505 1769.86 985.111 1767.5 978.644 C 1765.15 972.176 1768.41 965.015 1774.83 962.537 z"/>
<path transform="translate(0,0)" fill="#C9A84C" d="M 1248.38 263.726 C 1254.68 261.127 1261.89 264.034 1264.63 270.268 C 1267.36 276.503 1264.61 283.781 1258.44 286.652 C 1254.33 288.566 1249.5 288.104 1245.82 285.443 C 1242.14 282.782 1240.19 278.34 1240.73 273.832 C 1241.26 269.325 1244.19 265.458 1248.38 263.726 z"/>
<path transform="translate(0,0)" fill="#C9A84C" d="M 1240.8 1832.62 C 1246.81 1831.59 1252.54 1835.53 1253.73 1841.51 C 1254.91 1847.49 1251.1 1853.32 1245.16 1854.64 C 1241.18 1855.53 1237.03 1854.19 1234.32 1851.15 C 1231.61 1848.1 1230.77 1843.83 1232.11 1839.98 C 1233.46 1836.13 1236.79 1833.31 1240.8 1832.62 z"/>
<path transform="translate(0,0)" fill="#C9A84C" d="M 1231.16 1790.79 C 1237.15 1789.73 1242.88 1793.67 1244.05 1799.64 C 1245.22 1805.61 1241.4 1811.42 1235.45 1812.7 C 1231.5 1813.55 1227.4 1812.21 1224.72 1809.18 C 1222.05 1806.15 1221.22 1801.91 1222.56 1798.1 C 1223.89 1794.28 1227.18 1791.49 1231.16 1790.79 z"/>
<path transform="translate(0,0)" fill="#C9A84C" d="M 393.805 1586.67 C 397.381 1585.38 401.378 1586.18 404.174 1588.76 C 406.97 1591.33 408.101 1595.25 407.107 1598.92 C 406.114 1602.59 403.161 1605.4 399.448 1606.21 C 394.2 1607.36 388.962 1604.24 387.472 1599.08 C 385.982 1593.92 388.753 1588.49 393.805 1586.67 z"/>
<path transform="translate(0,0)" fill="#C9A84C" d="M 1132.22 1855.59 C 1137.55 1854.24 1142.97 1857.41 1144.41 1862.71 C 1145.85 1868.01 1142.76 1873.49 1137.49 1875.01 C 1134 1876.01 1130.24 1875.06 1127.65 1872.51 C 1125.06 1869.97 1124.04 1866.22 1124.99 1862.71 C 1125.94 1859.21 1128.7 1856.49 1132.22 1855.59 z"/>
<path transform="translate(0,0)" fill="#C9A84C" d="M 1053.1 1515.49 C 1055.98 1514.13 1059.38 1514.48 1061.92 1516.4 C 1064.47 1518.32 1065.74 1521.49 1065.23 1524.64 C 1064.72 1527.78 1062.5 1530.38 1059.48 1531.4 C 1055.17 1532.84 1050.48 1530.67 1048.79 1526.45 C 1047.1 1522.24 1048.99 1517.43 1053.1 1515.49 z"/>
<path transform="translate(0,0)" fill="#C9A84C" d="M 1053.46 1548.51 C 1056.35 1547.23 1059.71 1547.64 1062.2 1549.6 C 1064.69 1551.55 1065.9 1554.72 1065.33 1557.84 C 1064.77 1560.95 1062.53 1563.5 1059.51 1564.46 C 1055.19 1565.83 1050.55 1563.59 1048.94 1559.35 C 1047.33 1555.11 1049.31 1550.35 1053.46 1548.51 z"/>
</svg>